<?xml version="1.0" standalone="no"?>
<!DOCTYPE svg PUBLIC "-//W3C//DTD SVG 1.1//EN" "http://www.w3.org/Graphics/SVG/1.1/DTD/svg11.dtd" >
<svg>
<metadata>
Created by FontForge 20090622 at Sat Jul 14 12:43:47 2018
 By deploy user
</metadata>
<defs>
<font id="BernhardscriptC" horiz-adv-x="260" >
  <font-face 
    font-family="Bernhard scriptC "
    font-weight="400"
    font-stretch="normal"
    units-per-em="1000"
    panose-1="2 0 4 0 0 0 0 0 0 0"
    ascent="800"
    descent="-200"
    x-height="202"
    cap-height="703"
    bbox="-83 -219 1295 865"
    underline-thickness="0"
    underline-position="0"
    unicode-range="U+0020-U+2116"
  />
<missing-glyph horiz-adv-x="175" 
 />
    <glyph glyph-name=".notdef" horiz-adv-x="175" 
 />
    <glyph glyph-name="exclam" unicode="!" horiz-adv-x="154" 
d="M244 444q-8 -17 -24 -57q-30 -72 -59 -162q-5 -14 -30 -103l-7 -24l-15 5q6 21 15 60q21 97 27 153q4 36 5 99q4 1 13 2l6 2q40 13 68 25h1zM136 37q0 -16 -11.5 -27.5t-27.5 -11.5q-17 0 -28.5 11t-11.5 27v1q0 40 40 40q16 0 27.5 -12t11.5 -28z" />
    <glyph glyph-name="quotedbl" unicode="&#x22;" horiz-adv-x="259" 
d="M340 555q0 -36 -27 -69.5t-63 -42.5l-12 -3l-4 13l12 3q44 11 62 51l4 9h-12q-42 0 -42 39q0 17 12.5 29.5t29.5 12.5t28.5 -12.5t11.5 -29.5zM231 556q0 -35 -25.5 -68t-59.5 -44l-16 -5l-4 14l14 4q42 12 59 50l4 9h-13q-16 0 -27 11.5t-11 28.5q0 16 12 28t29 12
q38 0 38 -40z" />
    <glyph glyph-name="dollar" unicode="$" horiz-adv-x="327" 
d="M332 287q0 -18 -12 -30t-29 -12q-16 0 -27.5 11.5t-11.5 27.5q0 33 31 36l11 1q-28 25 -62 29l-34 -141l15 -4q98 -26 98 -84q0 -47 -45.5 -85.5t-102.5 -38.5h-16l-16 -71h-16l17 73l-22 3q-42 6 -68 28.5t-26 52.5q0 19 13 31.5t31 12.5q39 0 39 -39q0 -38 -35 -38
q-9 0 -13 1l-5 2v-1q16 -29 60 -37q3 -1 6 -1v0l1 -1l22 -3l35 146l-17 6q-78 28 -78 91q0 46 37 79t88 33q4 0 8 -1h13l10 41h15l-11 -43l13 -3q84 -19 84 -72zM217 352h-12q-32 0 -56 -23.5t-24 -53.5q0 -42 47 -58l12 -4zM261 91q0 37 -61 56l-16 5l-34 -142h11h15
q38 9 61.5 31t23.5 50z" />
    <glyph glyph-name="percent" unicode="%" horiz-adv-x="546" 
d="M539 193q0 -76 -37 -136.5t-83 -60.5q-30 0 -50 27t-20 67q0 74 39 134.5t87 60.5q64 0 64 -92zM465 450l-297 -461l-21 13l298 460zM267 363q0 -75 -37 -135.5t-83 -60.5q-30 0 -50.5 27t-20.5 66q0 30 11 69q36 126 115 126q65 0 65 -92zM521 200q0 72 -40 72
q-29 0 -54 -50q-34 -67 -34 -142v-2q0 -68 35 -68q29 0 53 43q40 71 40 147zM249 371q0 71 -40 71q-19 0 -39 -25t-32 -63q-18 -59 -18 -104v-1q0 -69 36 -69q28 0 53 44q40 71 40 147z" />
    <glyph glyph-name="ampersand" unicode="&#x26;" horiz-adv-x="848" 
d="M854 316q0 -138 -72.5 -230t-181.5 -92q-69 0 -124 37l-15 10l-29 -14q-77 -37 -157 -37q-86 0 -139.5 42t-53.5 110q0 70 63 126l18 16l-6 16q-16 43 -16 92q0 129 96.5 214.5t242.5 85.5q160 0 267 -107.5t107 -268.5zM538 520q0 51 -40 51q-45 0 -76 -51t-31 -125
q0 -6 1 -9v-20l22 9q124 51 124 145zM824 297q0 171 -95 276t-251 105q-139 0 -230.5 -82t-91.5 -206q0 -38 13 -75l8 -23l39 20q36 16 59 23q30 9 60 17l2 22q8 83 56 147.5t105 64.5q68 0 68 -69q0 -51 -44 -94q-50 -49 -104 -65l-4 -2l-20 -6l2 -14q19 -133 95 -227
l17 -21l21 18q29 25 51.5 64t22.5 63q0 11 -5 11h-2l-1 -1l-4 -1l-7 -4q-9 -5 -19 -5q-23 0 -38.5 16t-15.5 41q0 26 18 44.5t43 18.5q29 0 48 -23t19 -58q0 -82 -89 -167l-5 -5l-26 -24l8 -6q61 -46 109 -46q83 0 135.5 76t52.5 197zM449 52l-12 11q-41 38 -70 115
q-24 64 -32 145v12l-6 -2q-7 -3 -23 -8q-42 -14 -72 -34q-12 -8 -37 -33q15 -22 32 -37t42 -29l-7 -14q-26 15 -43 30q-20 18 -35 38l-8 -11q-25 -34 -25 -79q0 -62 43 -101t111 -39q60 0 126 29z" />
    <glyph glyph-name="quotesingle" unicode="'" horiz-adv-x="130" 
d="M243 553q0 -15 -10 -37q-27 -61 -80 -73l-13 -3l-3 13l11 3q44 12 62 50l3 9h-7q-44 0 -44 40q0 17 12 29.5t29 12.5t28.5 -12.5t11.5 -31.5z" />
    <glyph glyph-name="parenleft" unicode="(" horiz-adv-x="310" 
d="M422 704q0 -22 -24 -22q-13 0 -26 9l-3 2q-21 14 -35 14q-37 0 -67 -46.5t-51 -115.5q-36 -120 -67 -256l-27 -118q-10 -44 -10 -94q0 -54 14 -87t37 -33h3q3 0 9 1q2 0 5 1h5l10 1l1 1q37 0 37 -25t-32 -25q-59 0 -98.5 79.5t-39.5 198.5q0 42 10 107q28 181 116.5 311
t185.5 130q19 0 33 -9.5t14 -23.5z" />
    <glyph glyph-name="parenright" unicode=")" horiz-adv-x="310" 
d="M340 462q0 -157 -65 -307q-49 -114 -114.5 -179.5t-131.5 -65.5q-48 0 -48 34q0 22 24 22q11 0 25 -9l2 -2q25 -15 37 -15q7 0 21 6q48 21 84 120q6 15 17 47q14 48 29 107q37 140 61 252q13 60 13 105q0 49 -15.5 81.5t-38.5 32.5h-7l-12 -3l-6 -2h-2q-41 0 -41 28
q0 22 30 22q61 0 99.5 -77t38.5 -197z" />
    <glyph glyph-name="asterisk" unicode="*" horiz-adv-x="110" 
d="M248 530l-1 -2v-2q-3 -17 -42 -17h-7l-5 1h-9q-6 0 -9 -1h-2l-1 -2v-1q0 -6 18 -12l3 -1q36 -16 36 -34q0 -14 -15 -14q-3 0 -5 1l-8 4l-3 3l-17 26l-1 3l-8 13q-1 2 -4 2h-2l-1 -17v-31q0 -23 -17 -23q-16 0 -16 15q0 13 17 39l1 3q5 10 5 15q0 2 -2 2h-1l-16 -8
l-24 -15q-6 -4 -16 -4q-16 0 -16 13q0 22 50 22h3q16 0 19 2v5q-5 5 -15 9l-5 2q-32 13 -32 32q0 15 14 15t30 -31l2 -4q3 -4 5 -10q8 -8 9 -8q3 0 3 10v11l-1 5v9q0 38 19 38q15 0 15 -15q0 -14 -16 -41l-2 -1q-7 -13 -7 -18v-1h1l1 -1q9 2 17 8l3 3q22 17 38 17
q17 0 17 -14z" />
    <glyph glyph-name="plus" unicode="+" horiz-adv-x="264" 
d="M254 108l-13 -26h-86l-21 -79h-30l22 79h-93l14 26h86l21 77h29l-21 -77h92z" />
    <glyph glyph-name="comma" unicode="," horiz-adv-x="130" 
d="M118 37q0 -36 -26.5 -69t-63.5 -42l-13 -3l-3 12l17 6q42 15 57 49l4 9l-9 -1h-5q-39 0 -39 40q0 17 12 29t29 12t28.5 -12t11.5 -30z" />
    <glyph glyph-name="hyphen" unicode="-" horiz-adv-x="196" 
d="M190 108l-17 -31h-144l16 31h145z" />
    <glyph glyph-name="period" unicode="." horiz-adv-x="131" 
d="M117 36q0 -16 -10.5 -27.5t-26.5 -11.5q-15 0 -26 11.5t-11 27.5v1q0 17 10.5 28t26.5 11t26.5 -11.5t10.5 -28.5z" />
    <glyph glyph-name="slash" unicode="/" horiz-adv-x="283" 
d="M384 690l-328 -708l-28 13l327 707z" />
    <glyph glyph-name="zero" unicode="0" horiz-adv-x="305" 
d="M291 170q0 -75 -42 -125t-106 -50q-49 0 -79.5 33t-30.5 85q0 68 47.5 118t112.5 50q45 0 71.5 -30t26.5 -81zM268 176q0 92 -61 92q-48 0 -82 -44t-34 -110v-2q0 -43 20.5 -72.5t49.5 -29.5q45 0 76 48t31 118z" />
    <glyph glyph-name="one" unicode="1" horiz-adv-x="227" 
d="M194 280l-53 -231q-3 -13 -3 -22q0 -15 27 -15h14l-4 -13q-37 4 -69 4q-33 0 -69 -4l3 12l27 4l1 1q13 3 19 31l8 39l31 134q-29 -13 -63 -20l3 14q66 13 117 66h11z" />
    <glyph glyph-name="two" unicode="2" horiz-adv-x="261" 
d="M256 91l-32 -91h-202l2 12l14 8q49 28 85 61q55 51 55 103q0 57 -54 57q-34 0 -56 -25.5t-22 -64.5q0 -27 12 -53l5 -11l-11 -4l-5 12q-11 26 -11 55q0 52 36.5 90t85.5 38q34 0 55.5 -21.5t21.5 -55.5q0 -70 -113 -138l-25 -15v-1l130 1l19 48z" />
    <glyph glyph-name="three" unicode="3" horiz-adv-x="269" 
d="M245 208q0 -46 -44 -87l-13 -12l5 -6q38 -38 38 -75q0 -53 -44 -91q-43 -37 -109 -37q-34 0 -56 15.5t-22 38.5q0 37 35 37q36 0 36 -35q0 -28 -21 -34l-10 -3l13 -5q12 -3 25 -3q42 0 67 30t25 78q0 37 -18 58l-7 8l-11 -5q-21 -10 -48 -10q-41 0 -41 28q0 15 17 25
t43 10q30 0 55 -11l11 -5l7 9q20 23 20 58q0 28 -15 45t-40 17q-54 0 -69 -53l-6 -21l-12 2l5 17q11 39 40.5 62t67.5 23q33 0 54.5 -19t21.5 -49zM136 92l-11 8q-17 12 -42 12q-27 0 -27 -17q0 -6 9 -10l9 -4q10 -2 14 -2q11 0 37 9z" />
    <glyph glyph-name="four" unicode="4" horiz-adv-x="297" 
d="M280 100q-13 -32 -18 -62q-4 -22 -4 -47v-18h-11l-1 17q-2 32 -31 32h-15l-16 -65q-4 -16 -4 -26q0 -13 25 -13h16l-3 -13q-28 2 -67 2q-32 0 -80 -3l3 14h21q12 0 14 1l4 3l4 4l3 5l6 16q1 2 1 5l2 6l15 65h-123l-6 16l230 239h13l-54 -237h13q28 0 38 26l13 33h12z
M184 197l-150 -156h113z" />
    <glyph glyph-name="five" unicode="5" horiz-adv-x="276" 
d="M275 276l-7 -11q-33 -52 -105 -52q-28 0 -42 2l-29 4l-17 -66l17 5q10 3 29 3q61 0 96.5 -32t35.5 -87q0 -59 -45.5 -99.5t-111.5 -40.5q-38 0 -61 15t-23 39q0 37 37 37q36 0 36 -35q0 -18 -18 -33l-6 -5l11 -3q15 -4 26 -4q41 0 71 32.5t30 77.5q0 38 -23.5 60
t-63.5 22q-36 0 -50 -14l-5 -5l-11 4l50 185h3l29 -6q29 -6 62 -6q41 0 63 11l14 7z" />
    <glyph glyph-name="six" unicode="6" horiz-adv-x="284" 
d="M284 375l-3 -10h-12q-54 0 -105 -60q-18 -22 -35 -55l-9 -24l-4 -11l1 -1l6 9q22 33 77 33q34 0 55.5 -24.5t21.5 -64.5q0 -65 -47 -117.5t-106 -52.5q-42 0 -67.5 30.5t-25.5 81.5q0 64 34 124.5t93.5 101t106.5 40.5h19zM218 173q0 60 -44 60q-38 0 -66 -47t-28 -111
q0 -27 13 -46t32 -19q36 0 64.5 49.5t28.5 113.5z" />
    <glyph glyph-name="seven" unicode="7" horiz-adv-x="241" 
d="M281 268l-40 -48l-86 -113q-74 -97 -74 -141v-1l1 -12l5 8q8 13 27 13q15 0 26 -10.5t11 -25.5t-11.5 -26t-26.5 -11q-43 0 -43 58q0 33 21.5 73t81.5 117l46 59l-1 1l-8 -2h-6l-3 -1h-18q-12 1 -33 4l-8 1q-40 5 -51 5q-5 0 -29 -2l-12 -1l-18 -37l-11 5q27 55 41 103
l12 -4l-2 -9l9 3h10q1 0 3 1h6q30 0 50 -4l5 -1h5l8 -2q14 -2 39 -2q42 0 56 6l11 3z" />
    <glyph glyph-name="eight" unicode="8" horiz-adv-x="288" 
d="M273 292q0 -57 -54 -79l-10 -4l9 -8q49 -44 49 -89q0 -50 -38.5 -84t-96.5 -34q-46 0 -74.5 26t-28.5 67q0 35 23.5 66.5t61.5 45.5l8 3l-10 11q-23 25 -23 57q0 41 31.5 70.5t74.5 29.5q34 0 56 -22t22 -56zM261 290q0 29 -18.5 48.5t-46.5 19.5t-46 -16.5t-18 -42.5
q0 -33 45 -67l21 -16l13 6q50 23 50 68zM219 89q0 36 -40 69l-10 10l-36 26l-13 -3q-33 -8 -57 -38.5t-24 -62.5q0 -36 26.5 -59.5t66.5 -23.5t63.5 22.5t23.5 59.5z" />
    <glyph glyph-name="nine" unicode="9" horiz-adv-x="284" 
d="M272 167q0 -100 -70.5 -180.5t-165.5 -87.5l-13 -1l3 11h13q44 0 88 45q27 27 58 95l6 13h-1l-9 -11q-27 -33 -77 -33q-35 0 -55.5 25t-20.5 67q0 60 45.5 114t104.5 54q43 0 68.5 -30t25.5 -81zM222 193q0 73 -44 73q-34 0 -61 -48q-31 -55 -31 -108v-2q0 -68 45 -68
q36 0 63.5 46t27.5 107z" />
    <glyph glyph-name="colon" unicode=":" horiz-adv-x="154" 
d="M149 163q0 -16 -11 -28t-26 -12t-26 11.5t-11 27.5v1q0 17 11 28t26 11t26 -11.5t11 -27.5zM117 39q0 -17 -10.5 -28.5t-26.5 -11.5q-15 0 -25.5 11.5t-10.5 27.5v1q0 39 36 39q16 0 26.5 -11.5t10.5 -27.5z" />
    <glyph glyph-name="semicolon" unicode=";" horiz-adv-x="154" 
d="M149 163q0 -16 -11 -28t-26 -12t-26 11.5t-11 27.5v1q0 17 11 28t26 11t26 -11.5t11 -27.5zM118 37q0 -36 -26.5 -69t-63.5 -42l-13 -3l-3 12l17 6q42 15 57 49l4 9l-9 -1h-5q-39 0 -39 40q0 17 12 29t29 12t28.5 -12t11.5 -30z" />
    <glyph glyph-name="equal" unicode="=" horiz-adv-x="264" 
d="M264 142l-13 -26h-208l14 26h207zM245 74l-14 -26h-208l14 26h208z" />
    <glyph glyph-name="question" unicode="?" horiz-adv-x="305" 
d="M363 349q0 -78 -94 -141l-30 -20l-10 -8l-8 -6l-3 -2q-25 -25 -40 -55l-6 -12l-13 4l7 16q20 47 67 84l5 4q10 6 19 20q45 57 45 103q0 34 -20 57t-50 23q-40 0 -69 -39t-29 -92q0 -25 6 -44l4 -13l-12 -4l-3 14q-8 37 -8 51q0 66 42 114t100 48q43 0 71.5 -29t28.5 -73z
M188 39q0 -17 -11.5 -28.5t-27.5 -11.5q-15 0 -26.5 11.5t-11.5 27.5v1q0 17 11 28.5t27 11.5t27.5 -12t11.5 -28z" />
    <glyph glyph-name="A" unicode="A" horiz-adv-x="822" 
d="M818 417q0 -73 -31 -194l-43 -171q-2 -10 -2 -12q0 -18 21 -19l41 -2l-4 -18q-14 1 -32.5 1h-41.5h-24h-53.5t-32.5 -1l-22 -1l4 19h16q50 0 57 22l3 10l23 75l27 101h-307l-17 -34q-48 -97 -117.5 -148.5t-150.5 -51.5q-48 0 -77 21.5t-29 56.5q0 56 51 56
q22 0 36.5 -15t14.5 -38q0 -19 -12.5 -34t-30.5 -17l-9 -1v-1l13 -5q16 -6 39 -6q158 0 226 188l4 11l5 11l29 67l5 14q83 230 223 330l24 17l-21 10q-45 22 -111 22q-129 0 -226 -108q-97 -107 -97 -249q0 -61 22 -120l8 -22l-14 -6l-11 26q-23 55 -23 138q0 150 103 253
q104 104 252 104q64 0 116 -20l28 -11q15 10 32.5 18.5t37.5 15.5l6 -15l-6 -2q-33 -11 -54 -25l16 -11q77 -53 103 -142q13 -42 13 -87zM759 426q0 138 -84 200l-18 13l-18 -12q-59 -40 -118 -153q-7 -12 -27 -62l-7 -17l-1 -5l-2 -4l-4 -10q-1 -4 -4.5 -13l-8.5 -23
q-13 -34 -33 -76l-10 -21h305l9 38q21 88 21 145z" />
    <glyph glyph-name="B" unicode="B" horiz-adv-x="941" 
d="M941 554q0 -38 -15.5 -66.5t-57.5 -66.5l-11 -10l-16 -16q-10 -10 -10 -16t12 -15l4 -3q88 -66 88 -148q0 -91 -71 -155t-170 -64q-51 0 -81.5 22t-30.5 57q0 23 15.5 39t38.5 16q21 0 36 -14.5t15 -36.5q0 -20 -13.5 -35t-32.5 -15h-9v-1l10 -7q13 -9 47 -9q88 0 141 47
t53 124q0 80 -81 128l-4 3l-4 2l-10 4q-11 6 -11 20q0 19 23 38l5 5q85 71 85 138q0 37 -17.5 72.5t-43.5 47.5l-9 4l-28 -15q-47 -25 -80 -71q-29 -40 -55 -154v-3l-1 -2l-6 -24q-95 -382 -394 -382q-88 0 -147.5 40t-59.5 98q0 48 45 94q69 70 162 70h10l23 -1l17 -2l1 25
q2 52 39.5 122t89.5 121q65 64 150.5 100.5t171.5 36.5q42 0 78 -11l26 -8q41 12 77 14l2 -14q-27 -1 -58 -12l8 -6q54 -40 54 -105zM801 653l-12 5q-34 14 -71 14q-81 0 -163 -42t-142 -114q-83 -99 -94 -200l-3 -28l9 -2q88 -20 141 -81l6 -7l-12 -10l-4 5q-31 50 -121 66
l-17 3q4 -61 36 -107l-13 -8q-21 30 -29 55q-9 29 -10 62h-23q-90 0 -153.5 -40t-63.5 -96q0 -50 55 -84t137 -34q201 0 275 196q8 21 31 102l6 21q43 152 104 221q46 53 109 90z" />
    <glyph glyph-name="C" unicode="C" horiz-adv-x="565" 
d="M648 528q0 -117 -70.5 -208.5t-161.5 -91.5q-43 0 -68.5 28.5t-25.5 78.5q0 78 58 139.5t137 65.5l20 1l1 -15h-12q-53 0 -101 -43t-69 -110q-10 -32 -10 -56q0 -34 19 -54t51 -20q83 0 150 86t67 192q0 73 -41 115.5t-110 42.5q-138 0 -240 -151q-65 -97 -88 -201
q-8 -37 -8 -75q0 -104 50.5 -169t130.5 -65q47 0 100 29t92 74l14 16l12 -9l-15 -19q-43 -54 -107 -85t-130 -31q-98 0 -160 69t-62 179q0 174 125 315t280 141q80 0 126 -45t46 -124z" />
    <glyph glyph-name="D" unicode="D" horiz-adv-x="707" 
d="M708 425q0 154 -98 216l-11 7l-7 -5q-54 -39 -77 -236l-7 -61q-6 -53 -13.5 -90t-21.5 -65.5t-37.5 -52.5t-60.5 -51l-23 -17l25 -12q55 -26 100 -26t86.5 33.5t74 88.5t51.5 126t19 145zM269 37l-60 29q-60 28 -92 28q-46 0 -46 -31q0 -21 29 -36.5t69 -15.5q35 0 73 15
zM569 662q-54 20 -104 20q-65 0 -131.5 -27.5t-120.5 -75.5t-88 -112t-34 -137q0 -24 5.5 -47t16.5 -41.5t27 -30t38 -11.5q33 0 62 16t52.5 43t40 61.5t25 70.5t7.5 72t-13 65l10 7q22 -57 21.5 -120.5t-23 -116t-66 -87t-107.5 -34.5q-26 0 -47 12t-36 33t-23 48.5
t-8 58.5q0 48 15.5 94t43 87t65 75.5t81 59.5t91 39t95.5 14q64 0 123 -25l12 -5q31 18 77 31l3 -17q-16 -2 -32 -7.5t-32 -15.5l7 -6q120 -104 120 -243q0 -78 -27 -152.5t-72 -132.5t-104 -93t-123 -35q-20 0 -44 4.5t-51 15.5l-32 12l-16 -9q-47 -26 -107 -26
q-24 0 -44 5.5t-35 15.5t-23.5 23t-8.5 28q0 29 28.5 47.5t76.5 18.5q56 0 127 -33l47 -22l14 14q32 32 57 88.5t31 148.5l2 21q6 61 16 107t26 81t38 61.5t51 48.5l13 10z" />
    <glyph glyph-name="E" unicode="E" horiz-adv-x="605" 
d="M604 187q0 -80 -82.5 -136t-199.5 -56t-191 58t-74 150q0 76 55.5 135t144.5 81l4 1l9 2q3 3 3 6q0 4 -3 5l-7 6l-3 3q-40 40 -40 98q0 67 60.5 111.5t150.5 44.5q64 0 105 -28t41 -71q0 -25 -14 -41t-36 -16q-19 0 -31.5 13.5t-12.5 32.5t12 32t29 13h9q8 0 8 5
q0 4 -8 14q-38 30 -94 30q-62 0 -106.5 -35.5t-44.5 -85.5q0 -26 14.5 -53t37.5 -40l7 -4q11 -8 11 -15q0 -14 -16 -20l-23 -8l-11 -3q-181 -49 -181 -206q0 -85 61.5 -140.5t155.5 -55.5q89 0 154 51t65 121q0 50 -37.5 83.5t-95.5 33.5q-48 0 -95 -24t-60 -57l-6 -15
l-16 7l5 11q19 43 72 69q50 26 106 26q73 0 120.5 -37.5t47.5 -95.5z" />
    <glyph glyph-name="F" unicode="F" horiz-adv-x="674" 
d="M893 688l-4 -12q-23 -70 -126 -70h-6l-8 1h-13l-8 -7q-26 -19 -45 -56q-16 -31 -22 -92l-7 -66q-3 -28 -11 -68l-8 -40h110l-4 -18h-112l-12 -34q-37 -105 -137.5 -168.5t-228.5 -63.5q-91 0 -148 38t-57 100q0 59 56.5 98.5t141.5 39.5q52 0 86 -16l15 -7l1 1l-10 5
q-32 16 -51 61q-18 42 -18 93q0 119 97.5 204t233.5 85q50 0 130 -20l24 -6l17 -5q3 0 9 -2l8 -2q28 -7 52 -7q28 0 36 25l4 12zM718 611l-88 17q-62 12 -102 12q-130 0 -197 -89q-48 -63 -48 -147q0 -114 92 -160l18 -9l-11 -18l-18 10q-47 26 -111 26q-72 0 -121.5 -38
t-49.5 -94q0 -52 47.5 -82t128.5 -30q83 0 152 37q101 54 137 174l12 40h-110l4 18h111l17 79q25 117 70 180q17 24 37 44z" />
    <glyph glyph-name="G" unicode="G" horiz-adv-x="582" 
d="M612 590q0 -24 -16 -41.5t-38 -17.5q-20 0 -34.5 15t-14.5 35q0 22 15 37.5t35 15.5q8 0 12 -1l7 -2v1l-14 12q-41 35 -100 35q-109 0 -196 -96t-87 -216q0 -65 35 -106.5t90 -41.5q69 0 139 61t92 139l6 21l68 4l-23 -111q-16 -78 -30 -130q-42 -157 -139.5 -240.5
t-239.5 -83.5q-76 0 -123.5 31t-47.5 81q0 58 59 101.5t136 43.5q37 0 81 -13t66 -29l4 -3l-10 -12l-15 9q-40 24 -101 24q-81 0 -142 -37t-61 -85q0 -42 42.5 -69t108.5 -27q115 0 197 78.5t118 220.5l22 87l17 79h-1l-16 -24q-44 -65 -111.5 -106.5t-130.5 -41.5
q-70 0 -114.5 49.5t-44.5 128.5q0 132 102.5 231.5t237.5 99.5q68 0 114 -30.5t46 -75.5z" />
    <glyph glyph-name="H" unicode="H" horiz-adv-x="855" 
d="M997 590q0 -58 -55 -114q-54 -57 -129 -84l-17 -6l-15 -59q-40 -156 -40 -228q0 -63 30 -63q15 0 39 35l1 2l2 2l9 15l13 -10l-15 -22q-45 -66 -89 -66q-28 0 -44.5 27.5t-16.5 75.5q0 107 43 232l16 47l-133 -19l-14 -50q-59 -208 -188 -278q-67 -37 -131 -37
q-60 0 -96.5 33t-36.5 88q0 49 24 81l15 20l-13 8q-73 45 -73 153q0 126 109 202q110 77 296 77h16l23 1q129 6 160 25l10 5l12 -11l-7 -8q-25 -28 -48 -86q-8 -19 -16 -48t-18 -69l-22 -92l137 21l12 27q99 222 203 222q47 0 47 -49zM981 587q0 36 -34 36q-67 0 -134 -184
l-4 -11l-8 -26l21 9q34 14 62 34t51 45q46 49 46 97zM614 643l-96 -4q-128 -5 -186 -21q-100 -27 -160 -97q-60 -71 -60 -161q0 -80 60 -131l7 -6l14 13q78 72 268 110l67 13l3 12q2 7 4 18.5t6 28.5q10 41 20 76.5t21 66.5q5 16 13 36zM524 344l-48 -9q-191 -36 -264 -102
l-19 -17l7 -3q29 -13 65 -13q26 0 47 7l16 5l6 -13l-9 -4q-20 -9 -58 -9q-41 0 -72 12l-13 5l-12 -18q-21 -32 -21 -74q0 -48 30 -74.5t84 -26.5q181 0 251 292z" />
    <glyph glyph-name="I" unicode="I" horiz-adv-x="555" 
d="M720 654l-20 -18q-29 -26 -49 -49.5t-33.5 -49t-21 -54t-11.5 -64.5l-13 -108q-8 -65 -33 -122.5t-68.5 -100.5t-105 -68t-142.5 -25t-128.5 37t-47.5 100q0 111 145 166q9 4 18 6t17 4l16 3l1 24q3 75 30 141t70.5 115t100.5 77t120 28q73 0 123 -34l12 -8l12 9z
M649 609l-17 9q-45 24 -104 24q-56 0 -105 -23.5t-85.5 -64.5t-57.5 -96t-21 -118v-27l32 1q33 1 57 -4.5t40 -16.5l12 -8l-7 -12q-54 26 -110 26h-13.5t-11.5 -1q4 -36 14 -70t25 -65l-12 -8q-35 67 -41 140l-23 -4q-35 -6 -64 -21.5t-50 -37t-33 -48t-12 -53.5
q0 -55 42.5 -88t114.5 -33q130 0 196.5 77t87.5 224q10 76 42.5 148t83.5 128z" />
    <glyph glyph-name="J" unicode="J" horiz-adv-x="494" 
d="M639 649l-21 -15q-99 -70 -116 -189l-26 -192q-19 -145 -92 -251q-88 -127 -222 -127q-60 0 -96 40.5t-36 106.5q0 133 109 215l25 19l-4 19q-3 13 -3 47q0 155 92 265q93 110 224 110q61 0 117 -32l24 -14l15 11zM560 603l-17 11q-46 29 -106 29q-113 0 -189 -90
q-76 -89 -76 -224q0 -5 3 -41l2 -24q55 30 117 45l2 -16q-62 -11 -116 -48q15 -62 57 -113l-12 -10q-44 51 -57 112l-16 -13q-19 -16 -36 -40t-31 -58q-28 -65 -28 -122q0 -51 28.5 -80.5t79.5 -29.5q80 0 143 67t79 170l31 201q23 144 120 250z" />
    <glyph glyph-name="K" unicode="K" horiz-adv-x="827" 
d="M906 574q0 -19 -12.5 -31.5t-30.5 -12.5q-17 0 -29.5 12t-12.5 30q0 9 6 21l2 4l1 1v2q0 8 -13 8q-29 0 -51.5 -35.5t-31.5 -95.5l-2 -8l-2 -12q-18 -107 -81 -165l-12 -11l13 -15q35 -41 49 -114l3 -17l3 -11q22 -85 51 -85q14 0 27 18t16 43l1 3v3l1 8l18 -3l-3 -17
q-3 -21 -12.5 -39t-22.5 -32t-28.5 -22t-30.5 -8q-70 0 -91 129l-16 95q-2 8 -4.5 16.5t-6.5 16.5l-4 9q-18 -8 -37 -8q-23 0 -39 9l-15 -28q-59 -111 -152 -175q-91 -64 -194 -64q-61 0 -99 24.5t-38 66.5q0 22 15 37t38 15q22 0 37 -14.5t15 -36.5q0 -20 -13 -35t-31 -15
h-1l-12 1v-1l8 -5q26 -20 76 -20q90 0 167.5 63t128.5 175q57 126 57 230q0 90 -42.5 141t-115.5 51q-104 0 -180 -102q-76 -100 -76 -239q0 -107 60 -158l13 -11l-9 -13l-10 8q-70 55 -70 171q0 156 89 263q88 108 219 108q91 0 140 -54.5t49 -153.5q0 -74 -21 -141
l-10 -32l12 1h3q31 0 63 -25l9 8q15 12 26 74l2 12q9 55 26 100.5t40 77t51 49t60 17.5q28 0 47.5 -16.5t19.5 -39.5zM595 273l-1 1q-15 30 -42 30q-3 0 -11 -2l-11 -27q14 -11 29 -11q18 0 36 9z" />
    <glyph glyph-name="L" unicode="L" horiz-adv-x="743" 
d="M813 553q0 -47 -15.5 -93.5t-43.5 -87t-66 -73.5t-83 -53l-27 -12l-7 14l14 5q42 15 75 44t56.5 68t35.5 86.5t12 99.5q0 61 -21 95t-59 34q-56 0 -95 -53.5t-56 -165.5l-7 -55q-11 -87 -28.5 -148.5t-44.5 -99.5l-14 -20l16 -6q29 -11 95 -61l8 -6q49 -37 82 -37
q19 0 39 14.5t30 35.5l6 13l16 -8l-13 -22q-37 -64 -112 -64q-52 0 -155 60l-53 31l-17 -16q-83 -77 -201 -77q-30 0 -55 7.5t-43.5 20.5t-29 31t-10.5 39q0 24 14 44.5t39 35t59 23t73 8.5q74 0 160 -39l33 -15l4 10q16 39 23 156l2 30q5 74 26 138t53 111.5t74 74.5t89 27
q27 0 49 -10.5t38.5 -29.5t25.5 -45.5t9 -58.5zM382 96l-41 23q-92 52 -169 52q-51 0 -83 -22t-32 -55q0 -18 9.5 -33t27 -26t40.5 -17.5t50 -6.5q106 0 185 73z" />
    <glyph glyph-name="M" unicode="M" horiz-adv-x="972" 
d="M969 514q0 -40 -24 -113l-43 -130l-21 -71q-23 -78 -23 -114q0 -51 33 -51q29 0 47 47l3 8l16 -9l-14 -24q-38 -65 -86 -65q-27 0 -45 21.5t-18 51.5q0 46 27 129l57 175q28 86 28 122q0 18 -11.5 30.5t-27.5 12.5q-48 0 -137 -185q-7 -14 -24 -51l-22 -50
q-63 -141 -83 -213l-9 -32h-58l96 384q25 100 25 154q0 56 -37 56q-14 0 -26 -10q-29 -24 -75 -113q-47 -92 -122 -302q-5 -14 -45 -138l-10 -31h-65l43 154l52 209l6 31q17 93 17 120q0 70 -30 110.5t-82 40.5q-73 0 -123.5 -78.5t-50.5 -190.5q0 -131 76 -207l22 -22
l-12 -12l-15 15q-87 87 -87 224q0 126 60 211.5t149 85.5q68 0 108 -48.5t40 -131.5q0 -30 -7 -74q-9 -38 -23 -111l-2 -15l-4 -14q-10 -46 -36 -135l-20 -56h1l84 231q4 12 22 55q101 245 196 245q56 0 56 -71q0 -79 -43 -249q-22 -86 -43 -152l-19 -59l1 -1l24 64
q46 123 110 243q84 158 160 158q29 0 46.5 -16.5t17.5 -42.5z" />
    <glyph glyph-name="N" unicode="N" horiz-adv-x="1136" 
d="M683 537q-61 0 -164 -196q-38 -72 -67.5 -135.5t-50.5 -118.5l-33 -86h-62l15 50q14 43 27 100q69 277 69 373q0 67 -31.5 107t-83.5 40q-77 0 -135 -85t-58 -198q0 -166 104 -258l9 -8l-11 -14l-20 20q-98 98 -98 260q0 129 67 218q67 91 165 91q68 0 110 -49
q43 -47 43 -124q0 -52 -15 -136q-7 -37 -17 -82t-24 -99l-7 -27l-5 -18l-20 -68l23 56q2 5 6 14t9 23l9 21q156 364 279 364q66 0 66 -62q3 -21 -4 -50.5t-18.5 -64.5l-24.5 -73.5t-22 -77.5q-9 -37 -12.5 -77t4.5 -74.5t31 -57.5t65 -26q52 2 98 23.5t79.5 56t53 78.5
t19.5 91q0 27 -5 54.5t-18 49.5t-33.5 35t-50.5 11t-57 -17t-48 -39.5t-34 -55.5t-14 -64q0 -37 17 -62t44 -24l-2 -12q-16 -1 -29.5 6t-23.5 20.5t-15.5 32t-5.5 39.5q1 40 18.5 77t45.5 65.5t64 46.5t75 20q49 3 83 -23q25 -17 38 -46.5t12 -70.5q-2 -60 -28 -115.5
t-70.5 -99t-105 -70t-130.5 -27.5q-50 0 -81.5 21t-46.5 55t-15 77.5t11 88.5q10 38 24 77t26 76q6 18 13 44t8.5 50.5t-5.5 41.5t-29 17z" />
    <glyph glyph-name="O" unicode="O" horiz-adv-x="637" 
d="M695 463q0 -92 -32.5 -177.5t-87.5 -150.5t-127 -104t-151 -39q-52 0 -94.5 17.5t-73 49.5t-47.5 76.5t-17 97.5q0 46 12.5 92t35 87t53.5 75t67 55l20 12l6 -15l-10 -7q-24 -17 -44.5 -45.5t-35.5 -64t-23.5 -75t-8.5 -78.5q0 -56 14 -102.5t39.5 -80t61 -52t78.5 -18.5
q61 0 116 32t97 86t66.5 124t24.5 147q0 56 -12 102.5t-34 79.5t-53 51.5t-68 18.5q-43 0 -83 -23t-70.5 -61t-49 -87.5t-18.5 -102.5q0 -57 24.5 -93t64.5 -36q22 0 42 13t35 35.5t24 51.5t9 61q0 56 -25 88l-12 16l11 11l5 -5q44 -44 44 -119q0 -33 -10.5 -64t-28.5 -54.5
t-42.5 -37.5t-51.5 -14q-46 0 -75.5 40.5t-29.5 106.5q0 62 23 118.5t62 99.5t90 68.5t107 25.5q85 0 134 -61.5t49 -170.5z" />
    <glyph glyph-name="P" unicode="P" horiz-adv-x="670" 
d="M873 531q0 -86 -62 -159q-62 -72 -152 -93l-22 -5l-5 -21q-29 -119 -131 -190q-104 -71 -248 -71q-47 0 -85 10t-65.5 28t-42.5 43.5t-15 55.5q0 65 71 113q71 49 170 49h20l1 22q7 154 121 268t261 114q83 0 133 -46q51 -47 51 -118zM819 502q0 43 -20 80t-54 54l-12 6
l-12 -14q-7 -8 -14 -19.5t-14 -27.5q-25 -54 -32 -118l-22 -173l20 4q69 13 115 73q45 58 45 135zM718 648l-13 4q-21 7 -54 7q-80 0 -160 -52q-80 -53 -123 -131q-41 -74 -45 -154l-2 -32l14 -3q87 -20 145 -67l6 -5l-11 -9l-19 12q-54 34 -113 41l-22 3q8 -68 47 -122
l-13 -9q-42 60 -47 131h-14q-94 0 -164 -41q-68 -41 -68 -95q0 -53 54 -84q56 -32 141 -32q236 0 299 211q5 19 12.5 50.5t16.5 76.5l4 20q8 40 17.5 73t20.5 59q25 58 69 118z" />
    <glyph glyph-name="Q" unicode="Q" horiz-adv-x="650" 
d="M696 454q0 -85 -34 -172q-32 -86 -92 -158q-48 -57 -123 -95q-74 -36 -144 -36h-9l-17 1l-16 -16l29 -6q30 -6 68 -18l13 -4q86 -26 136 -26q61 0 117 63l14 16l14 -10l-14 -18q-75 -97 -182 -97q-46 0 -95 12l-78 19l-78 21l-21 -12q-56 -32 -107 -32q-64 0 -64 40
q0 26 40 43t100 17h19q8 0 17 -0.5t20 -1.5l33 -3l14 15l-17 4q-39 9 -70.5 30t-54 51t-34.5 68.5t-12 83.5q0 92 48 178q49 86 123 133l16 10l5 -15l-13 -9q-47 -32 -78 -108q-30 -75 -30 -158q0 -85 35 -152q36 -65 94 -84l9 -3q15 23 28.5 41.5t26.5 31.5t30.5 28
t40.5 32l9 -13q-17 -11 -30 -21.5t-23 -19.5q-15 -14 -29.5 -32.5t-28.5 -40.5l-7 -11l13 -2q7 -1 13.5 -1.5t13.5 -0.5q120 0 210 117q91 118 91 273q0 113 -46 181q-46 70 -120 70q-87 0 -154 -84q-68 -83 -68 -189q0 -58 25 -94.5t65 -36.5q43 0 76 49q34 49 34 113
q0 57 -29 94l-8 10l10 10l14 -14q36 -36 36 -110q0 -68 -39 -119q-39 -50 -92 -50q-48 0 -77.5 41t-29.5 107q0 127 85 219q85 93 200 93q85 0 132 -64t47 -178zM184 -65l-17 5q-32 9 -82 9q-52 0 -52 -24q0 -22 48 -22q32 0 77 20z" />
    <glyph glyph-name="R" unicode="R" horiz-adv-x="871" 
d="M866 88l-7 -16q-35 -80 -84 -80q-16 0 -32 17q-4 4 -10 13q-8 17 -23 69l-14 49q-13 45 -21 63q-6 13 -22 34l-16 21l-5 6l-48 -10l-4 -18q-24 -107 -121 -175.5t-222 -68.5q-83 0 -133.5 37t-50.5 97q0 62 56.5 111.5t141.5 63.5l12 2v24q0 65 29 136t76 119
q52 53 127 84t154 31q64 0 106 -21l18 -9q30 16 70 21l4 -16q-25 -3 -58 -15l14 -14q51 -51 51 -123q0 -135 -136 -218l-23 -14l4 -4q35 -25 56 -112l1 -7q30 -121 56 -121q11 0 29 33l8 15zM793 493q0 86 -50 121l-13 9l-14 -7q-81 -40 -105 -181q-4 -25 -10 -68l-13 -94
l23 3q80 10 131 72t51 145zM714 632l-16 7q-46 20 -108 20q-128 0 -214 -91t-97 -238l-2 -26h17q63 0 134 -40l16 -9l-9 -13l-24 13q-63 34 -119 34h-15q7 -74 47 -130l-14 -9q-43 66 -47 138l-15 -2q-73 -10 -126.5 -57t-53.5 -102q0 -51 46 -84.5t115 -33.5
q102 0 176.5 58t102.5 157q4 13 23 105l4 19q24 114 62 171q44 66 100 102z" />
    <glyph glyph-name="S" unicode="S" horiz-adv-x="618" 
d="M852 639q0 -21 -13 -35t-33 -14q-17 0 -29 12.5t-12 30.5q0 14 7 23l3 3q5 3 5 10q0 10 -12 10q-48 0 -81.5 -65t-38.5 -171l-1 -23q-2 -43 -16 -114q-30 -149 -125.5 -230t-241.5 -81q-101 0 -161.5 40t-60.5 107q0 76 70.5 131t166.5 55q71 0 116.5 -29t45.5 -75
q0 -34 -30 -62t-70 -28h-6l-16 -1l2 15l14 1q38 3 65 24.5t27 50.5q0 35 -33.5 56t-89.5 21q-99 0 -172 -49t-73 -115q0 -56 56.5 -91t146.5 -35q227 0 283 209q14 53 21 106l2 16q20 158 57 231q29 57 72 90t88 33q67 0 67 -57z" />
    <glyph glyph-name="T" unicode="T" horiz-adv-x="788" 
d="M912 637q0 -21 -13.5 -39t-38.5 -30.5t-59 -19.5t-76 -7q-76 0 -153 28l-25 9l-15 -12q-154 -123 -154 -303q0 -50 16.5 -94.5t45 -78t66.5 -53.5t82 -20q45 0 88 22t66 59l13 21l15 -9l-10 -16q-31 -49 -87.5 -76.5t-123.5 -27.5q-54 0 -99 17.5t-77.5 49t-50.5 75.5
t-18 97q0 169 201 336l23 19l-12 6q-7 4 -20.5 9.5l-33.5 13.5q-51 23 -84 31t-65 8q-41 0 -78.5 -18.5t-66 -49.5t-45 -72t-16.5 -86q0 -105 86 -152l22 -12l-7 -15l-17 9q-100 52 -100 171q0 54 23 102.5t62 85.5t90 58.5t108 21.5q15 0 28 -1.5t32 -6.5t48 -15.5
l75 -28.5l34 -13l22 12q104 56 198 56q46 0 73.5 -16.5t27.5 -44.5zM896 635q0 46 -85 46t-167 -42l-33 -17l34 -12q95 -34 154 -34q42 0 69.5 16.5t27.5 42.5z" />
    <glyph glyph-name="V" unicode="V" horiz-adv-x="588" 
d="M732 403q-25 -13 -50 -13q-6 0 -10 1l-7 -18q-88 -226 -335 -361l-11 -6l-13 -6l-18 -9q-21 -3 -18 -3q-9 0 -9 8q0 6 1 7l3 7l6 16q46 122 70 248q15 80 20 113q8 58 8 109q0 174 -107 174q-65 0 -111.5 -79t-46.5 -190q0 -153 86 -249l9 -10l-14 -10l-15 20
q-83 111 -83 257q0 122 55.5 203t139.5 81q73 0 114.5 -60.5t41.5 -166.5q0 -58 -21 -164q-8 -33 -26 -113q-2 -13 -9 -36l-4 -18l-4 -12l-24 -81h1l29 17q86 50 155 129q74 84 113 184l9 23l-12 3q-43 11 -71 56t-28 99q0 44 21.5 73.5t53.5 29.5q35 0 57 -34t22 -89
q0 -56 -17 -110l-5 -16h4q2 -1 3 -1q16 0 40 11zM682 530q0 80 -43 80q-20 0 -33 -22.5t-13 -59.5q0 -86 60 -113l9 -4l7 27q13 50 13 92z" />
    <glyph glyph-name="W" unicode="W" horiz-adv-x="939" 
d="M1045 479q-25 -18 -56 -23l-2 -12q-17 -100 -48 -183t-72 -142.5t-90 -92.5t-101 -33q-113 0 -113 184q0 117 30 230q32 115 80 178l25 33l-15 -12q-45 -36 -92.5 -116t-101.5 -204l-57.5 -135.5t-44.5 -114.5l-13 -36h-69l30 107q35 125 51 220t17 162q0 175 -115 175
q-38 0 -70.5 -21.5t-56.5 -58t-37.5 -86t-13.5 -106.5q0 -160 85 -245l19 -19l-9 -15l-16 16q-95 95 -95 263q0 65 16.5 120.5t45.5 96.5t69.5 64.5t87.5 23.5q72 0 112 -56.5t40 -156.5q0 -39 -5 -87t-18 -101v-2q0 -1 -0.5 -2t-0.5 -3l-36 -159l29 70q45 110 87.5 196.5
t78.5 136.5q52 76 125 126l29 20l13 -16l-9 -6q-24 -16 -43 -42.5t-33.5 -67t-25 -97.5t-19.5 -135l-6 -128q0 -142 85 -142q36 0 68 19.5t60 55t52 85.5t45 112q13 39 21 71t10 58l1 10l-7 1q-26 4 -49.5 19.5t-41.5 38.5t-28.5 51.5t-10.5 57.5q0 37 20.5 61.5t50.5 24.5
q40 0 64.5 -42t24.5 -114v-13q-1 -5 -1 -9.5v-8.5l-3 -50q29 6 44 19zM980 538q0 139 -53 139q-49 0 -49 -77q0 -48 25 -82t64 -43l9 -2l2 30q1 15 1.5 24t0.5 11z" />
    <glyph glyph-name="X" unicode="X" horiz-adv-x="704" 
d="M842 598q0 -18 -12.5 -31t-29.5 -13t-29 12.5t-12 30.5q0 10 3 17l2 3l3 5q1 0 1 1v2q0 10 -13 10q-23 0 -57.5 -20t-58.5 -47q-60 -68 -81 -179l-6 -32h132l-5 -18h-130l-4 -32q-3 -24 -3 -54q0 -205 76 -205q34 0 54 48l9 22l17 -5l-7 -18q-17 -44 -47 -72.5t-60 -28.5
q-43 0 -72 51t-29 127v1l1 41h-1l-3 -11l-5 -11q-23 -51 -61 -92q-43 -47 -101 -74.5t-114 -27.5q-53 0 -89 27.5t-36 67.5q0 23 14 37.5t36 14.5t37 -15t15 -37q0 -18 -14.5 -33t-33.5 -15h-12l-1 -1l13 -9q33 -23 70 -23q86 0 164 81.5t106 202.5l10 43h-112l5 18h111
l4 36q5 45 5 66q0 95 -42.5 157t-108.5 62q-62 0 -122 -47t-97 -124q-31 -65 -31 -137q0 -49 17 -85l8 -17l-14 -8l-8 17q-19 40 -19 93q0 128 85 227t196 99q80 0 132 -57.5t52 -146.5v-29l4 10q24 61 77 110q74 69 152 69q31 0 50.5 -15t19.5 -39z" />
    <glyph glyph-name="Y" unicode="Y" horiz-adv-x="727" 
d="M816 574l-13 -10q-29 -23 -44 -64q-11 -32 -20 -66t-15 -72l-2 -12l-22 -136q-27 -168 -119 -269t-218 -101q-89 0 -89 58q0 19 13.5 31t34.5 12q20 0 32.5 -12t12.5 -31q0 -16 -11 -30l-7 -9h22q141 0 211 157q4 8 7.5 18t8.5 23l3 15t4 18l6 27l-1 1l-11 -18
q-15 -24 -35.5 -44t-45.5 -34.5t-51.5 -22.5t-53.5 -8q-48 0 -96 21l-32 14l-19 -11q-41 -24 -101 -24q-46 0 -75 18t-29 46q0 31 33.5 52t82.5 21q48 0 116 -30l40 -18l16 17q64 68 102 164q40 96 40 188q0 45 -12.5 82.5t-35 64.5t-53.5 41.5t-69 14.5q-93 0 -157 -84
q-65 -85 -65 -203q0 -58 15 -95l10 -25l-16 -8l-7 20q-18 51 -18 109q0 135 81 230q82 96 198 96q87 0 143 -60q55 -58 55 -152q0 -92 -51 -197q-49 -104 -133 -185l-27 -26l26 -11q55 -23 90 -23q51 0 84.5 29t55.5 81q10 23 20 58.5t21 83.5l3 13q0 1 1 4t1 4l2 9l2 9
q21 91 59 155q46 76 87 96l5 3zM270 37l-31 15q-75 37 -118 37q-42 0 -42 -30q0 -21 24.5 -34t64.5 -13q36 0 78 16z" />
    <glyph glyph-name="Z" unicode="Z" horiz-adv-x="865" 
d="M946 502q0 -22 -26.5 -38t-64.5 -16q-26 0 -51 6l-17 4q-19 -24 -27 -37q-14 -25 -30 -64l-28 -70h91l-4 -16h-95q-7 -16 -19 -38l-16.5 -27t-18.5 -29q-14 -20 -40 -49l96 -75q34 -27 69 -27q22 0 44.5 17.5t30.5 41.5l3 9l17 -7l-5 -11q-16 -35 -51 -58.5t-73 -23.5
q-26 0 -54 9q-38 12 -112 65l-14 10l-16 -11q-106 -73 -216 -73q-83 0 -139 35q-55 36 -55 89q0 55 54 90q55 36 140 36q116 0 241 -87l23 -16l4 5q21 27 43 72q11 22 21 52h-100l6 18h102q9 21 18.5 40.5t19.5 36.5q35 61 73 99l-37 16q-32 14 -51 28l-117 84
q-104 74 -208 74q-97 0 -173 -59q-75 -59 -75 -134q0 -30 12.5 -54t35 -41t54.5 -26.5t71 -9.5q64 0 123 30q60 32 83 76l6 11l15 -11l-14 -19q-75 -102 -214 -102q-42 0 -77 10.5t-60 30t-38.5 46t-13.5 59.5q0 92 96 158t231 66q75 0 128 -22q55 -23 132 -84q12 -9 16 -13
l44 -37q6 -3 21 -17q4 -2 10.5 -6.5t14.5 -9.5l21 -12l20 13q42 27 77 27q43 0 43 -34zM929 501q0 18 -28 18q-34 0 -65 -21l-15 -10l9 -5q17 -10 46 -10q21 0 37 8.5t16 19.5zM536 89l-23 16q-142 98 -243 98q-58 0 -93.5 -23t-35.5 -60q0 -47 51 -78q53 -32 126 -32
q118 0 195 61z" />
    <glyph glyph-name="bracketleft" unicode="[" horiz-adv-x="290" 
d="M424 729l-6 -22h-93l-198 -766h92l-4 -21h-173l210 809h172z" />
    <glyph glyph-name="bracketright" unicode="]" horiz-adv-x="290" 
d="M363 730l-209 -808h-172l5 20h92l199 767h-92l6 21h171z" />
    <glyph glyph-name="asciicircum" unicode="^" horiz-adv-x="0" 
d="M331 738l-5 -18l-20 -1q-3 -1 -8 -1q-73 0 -85 58l-3 14q-38 -40 -89 -69l-9 17l17 10q54 32 105 103l10 14h25l-3 -18v-10q-1 -6 -1 -10q0 -78 54 -87z" />
    <glyph glyph-name="grave" unicode="`" horiz-adv-x="237" 
d="M181 253l-7 -10l-20 10q-26 13 -53.5 39.5t-39.5 47.5l-5 9h1q19 -9 66 -22l3 -9q14 -42 46 -60z" />
    <glyph glyph-name="a" unicode="a" horiz-adv-x="298" 
d="M292 50l-12 -16q-29 -39 -55 -39q-35 0 -35 35q0 2 1 5v5l2 7h-1l-16 -16q-35 -35 -78 -35q-34 0 -54.5 19.5t-20.5 52.5q0 55 37.5 96t88.5 41q43 0 64 -32l6 -9l8 38h52l-36 -143q-4 -16 -4 -25q0 -12 11 -12q7 0 17 15l13 19zM209 134q0 53 -44 53q-28 0 -55 -29.5
t-32 -67.5v-4q-1 -4 -1 -14q0 -57 40 -57q31 0 60 34q32 38 32 85z" />
    <glyph glyph-name="b" unicode="b" horiz-adv-x="268" 
d="M255 128q0 -53 -40 -93q-39 -39 -93 -39q-43 0 -67 21.5t-24 58.5q0 16 3 30l113 480h53l-106 -428l13 14q30 32 76 32q30 0 51 -22t21 -54zM201 129q0 52 -43 52q-32 0 -57 -36q-24 -36 -24 -85v-2q0 -48 37 -48q40 0 66 45q21 37 21 74z" />
    <glyph glyph-name="c" unicode="c" horiz-adv-x="203" 
d="M204 157q0 -15 -10.5 -25.5t-24.5 -10.5q-32 0 -32 33q0 21 17 29l10 5l-4 2q-8 2 -12 2q-30 0 -51.5 -33t-21.5 -79q0 -64 45 -64q22 0 44 24l14 15l11 -6l-14 -16q-32 -37 -77 -37q-35 0 -56 22t-21 60q0 53 35 89.5t85 36.5q27 0 45 -13t18 -34z" />
    <glyph glyph-name="d" unicode="d" horiz-adv-x="277" 
d="M351 582l-126 -518q-4 -14 -4 -27q0 -14 11 -14q10 0 26 27v1l1 1l6 12l10 -7l-8 -14q-26 -46 -62 -46q-33 0 -33 38v7l1 7v1l-9 -14q-25 -39 -72 -39q-31 0 -51 22.5t-20 57.5q0 51 33.5 89t78.5 38q42 0 60 -32l5 -11h1l102 421h50zM191 136q0 22 -12 36.5t-30 14.5
q-43 0 -69 -83q-7 -23 -7 -44q0 -47 34 -47q29 0 56.5 41.5t27.5 81.5z" />
    <glyph glyph-name="e" unicode="e" horiz-adv-x="199" 
d="M203 153q0 -30 -25.5 -51t-65.5 -23l-5 -1h-31v-12q0 -49 39 -49q28 0 58 30l9 9l9 -8l-14 -14q-37 -37 -86 -37q-70 0 -70 73q0 56 36 95.5t86 39.5q60 0 60 -52zM165 162q0 31 -26 31q-20 0 -37.5 -25.5t-22.5 -63.5l-2 -14h17q47 0 65 46q6 15 6 26z" />
    <glyph glyph-name="f" unicode="f" horiz-adv-x="153" 
d="M320 644q0 -13 -10.5 -23t-24.5 -10q-29 0 -29 28q0 6 2 10l3 8v1l-9 -8q-27 -24 -56 -119l-10 -34q-15 -51 -34 -157l-6 -33q-1 -6 -3 -17l-3 -16l-15 -84h47l-3 -17h-48l-7 -40q-23 -130 -65 -193q-45 -67 -95 -67q-37 0 -37 33q0 31 34 31q29 0 29 -29q0 -11 -5 -16
l-2 -2l3 1q6 4 15 9q6 5 17 20q12 19 35 122l5 22l3 23l18 85h-51l5 18h49l31 162q35 175 91 260q42 64 92 64q34 0 34 -32z" />
    <glyph glyph-name="g" unicode="g" horiz-adv-x="210" 
d="M226 233q0 -31 -31 -31q-20 0 -22 16l-1 7q-11 -14 -14 -29l8 -3q42 -10 42 -63q0 -46 -36 -81.5t-82 -35.5q-14 0 -20 3l-8 2l-19 -27l-1 -2v-1q2 -8 6 -10l48 -1q78 0 78 -42q0 -31 -30 -50.5t-79 -19.5q-83 0 -83 43q0 16 19 23l11 4l-4 3q-3 2 -5 7q0 2 -2 5v3
q0 12 20 34l19 21l11 14l-10 8q-21 17 -21 51q0 45 38 83q35 35 75 35q2 0 6 -1h7l8 18q19 42 45 42q27 0 27 -25zM161 115q0 66 -43 66q-21 0 -35 -20.5t-14 -53.5v-7q0 -70 43 -70q20 0 34.5 24.5t14.5 60.5zM137 -90q0 16 -21 17l-30 2l-53 1l-5 -1q-18 -7 -18 -21
q0 -31 62 -31q65 0 65 33z" />
    <glyph glyph-name="h" unicode="h" horiz-adv-x="289" 
d="M281 50l-8 -13q-25 -41 -62 -41q-34 0 -34 33q0 5 2 16q2 6 11 38l2 7l1 7q14 49 14 56q0 20 -19 20q-40 0 -101 -139l-15 -34h-51l145 585h50l-144 -554l21 46q58 128 129 128q36 0 36 -35q0 -17 -14 -66l-2 -7l-9 -31q-1 -4 -4 -15q-1 -6 -1 -18q0 -11 9 -11q4 0 25 23
l11 12z" />
    <glyph glyph-name="i" unicode="i" horiz-adv-x="155" 
d="M171 370q0 -14 -10.5 -24.5t-25.5 -10.5q-14 0 -24.5 10t-10.5 24v1q0 35 35 35q36 0 36 -35zM149 51l-7 -11q-29 -44 -67 -44q-32 0 -32 34q0 12 3 20l12 45q3 8 5.5 16.5t4.5 16.5l3 11q1 5 1.5 9t0.5 8q0 12 -7 12q-9 0 -22 -19l-11 -16l-11 6l12 17q32 46 63 46
q30 0 30 -32q0 -12 -15 -63l-2 -5q0 -3 -1.5 -7.5t-3.5 -12.5l-7 -25q-4 -13 -4 -22q0 -12 10 -12q14 0 28 26l6 11z" />
    <glyph glyph-name="j" unicode="j" horiz-adv-x="138" 
d="M165 369q0 -34 -34 -34q-14 0 -24.5 10t-10.5 23v1q0 14 10.5 24t24.5 10q34 0 34 -34zM125 174q0 -10 -4 -27l-15 -64l-12 -41q-49 -170 -121 -170q-33 0 -33 34q0 32 31 32q29 0 29 -28q0 -8 -3 -13l-4 -7l1 -1l5 6q12 12 18 36l27 110q3 12 9 40q2 8 6 19l4 17
q8 34 8 36q0 16 -12 16q-11 0 -21 -18l-8 -15l-11 7l10 15q31 46 66 46q30 0 30 -30z" />
    <glyph glyph-name="k" unicode="k" horiz-adv-x="299" 
d="M293 65l-4 -10q-24 -59 -75 -59q-36 0 -50 49l-2 5l-6 21q0 4 -3 10l-3 6q-17 -14 -39 -14q-13 0 -21 4l-18 -77h-49l84 383q18 82 61.5 142t84.5 60q36 0 36 -36q0 -35 -33 -35t-33 32q0 10 5 15l4 3l-1 1l-8 -8q-14 -14 -29 -57q-4 -11 -10 -30l-19 -77l-64 -266
q14 5 29 5q21 0 37 -10l6 9l17 32v1q18 39 54 39q45 0 45 -38q0 -14 -10 -24.5t-24 -10.5q-30 0 -30 31q0 20 14 25l6 2v1l-5 1h-4q-20 0 -39 -38l-2 -4q-3 -10 -14 -25l-5 -7l7 -6q13 -11 31 -48l1 -4q14 -32 29 -32q21 0 32 31l5 14zM146 97q-11 20 -32 20q-9 0 -15 -2
l-6 -25q8 -5 21 -5q16 0 32 12z" />
    <glyph glyph-name="l" unicode="l" horiz-adv-x="149" 
d="M207 584l-125 -516q-2 -8 -2 -25q0 -16 13 -16q15 0 36 28l9 12l8 -9l-11 -14q-37 -47 -73 -47q-32 0 -32 35q0 21 3 34l8 34l117 484h49z" />
    <glyph glyph-name="m" unicode="m" horiz-adv-x="438" 
d="M431 52l-12 -19q-23 -37 -59 -37q-34 0 -34 32q0 11 3 22l25 91q2 7 2 14q0 16 -15 16q-38 0 -98 -135l-16 -36h-50l35 136q2 7 2 16q0 18 -16 18q-36 0 -90 -124l-20 -46h-52l36 132q4 15 4 25t-9 10q-8 0 -20 -19l-11 -17l-11 6l12 19q28 45 64 45q26 0 26 -27
q0 -21 -16 -76q-1 -3 -3 -7l-2 -8l-19 -56h1l11 26q63 148 131 148q34 0 34 -35q0 -29 -16 -79q-4 -11 -10 -31l-11 -29h1l9 21q30 69 66 111.5t67 42.5q37 0 37 -37q0 -6 -17 -74l-2 -8l-7 -24q-3 -18 -3 -23q0 -13 10 -13q7 0 22 21l10 14z" />
    <glyph glyph-name="n" unicode="n" horiz-adv-x="291" 
d="M291 51l-10 -13q-32 -42 -63 -42q-32 0 -32 34q0 31 12 61l2 5q15 37 15 57q0 19 -15 19q-42 0 -96 -131l-17 -41h-51l40 156q0 12 -10 12q-11 0 -24 -24l-6 -11l-11 7l9 13q35 50 67 50q27 0 27 -29q0 -16 -20 -83q-5 -14 -12 -36l-11 -28v-1l9 20q70 156 136 156
q36 0 36 -34q0 -29 -15 -69l-3 -8q-12 -32 -12 -56q0 -13 9 -13q8 0 23 20l11 15z" />
    <glyph glyph-name="p" unicode="p" horiz-adv-x="263" 
d="M256 123q0 -54 -34 -91t-81 -37q-51 0 -66 44l-3 9h-1l-42 -175h-50l59 239q25 104 44 137q10 16 29.5 35t50.5 41l33 24l7 -10l-11 -7q-45 -29 -77 -130l-13 -41l1 -1l11 13q25 31 70 31q33 0 53 -22t20 -59zM203 118q0 62 -48 62q-49 0 -70 -76q-4 -12 -4 -29
q0 -62 46 -62q29 0 52 32q24 33 24 73z" />
    <glyph glyph-name="q" unicode="q" horiz-adv-x="269" 
d="M345 329l-11 -11q-23 -23 -34 -43.5t-31 -100.5l-77 -302h-51l42 159l-12 -10q-32 -27 -74 -27q-78 0 -78 82q0 55 36 92t89 37q44 0 66 -33l6 -11l7 30q13 54 81 116l33 30zM208 133q0 54 -47 54q-35 0 -63 -37t-28 -83v-1q0 -55 48 -55q37 0 63.5 36.5t26.5 85.5z" />
    <glyph glyph-name="r" unicode="r" horiz-adv-x="226" 
d="M243 166q0 -15 -11.5 -27t-25.5 -12q-24 0 -30 24l-1 8l-3 -4q-34 -45 -69 -127l-12 -28h-54l35 147l1 12q1 7 -8 7q-6 0 -20 -18l-12 -16l-10 4l13 20q29 45 61 45q29 0 29 -29q0 -28 -13 -70l-23 -75h1l21 45q32 69 54 96.5t46 27.5q31 0 31 -30z" />
    <glyph glyph-name="s" unicode="s" horiz-adv-x="189" 
d="M185 165q0 -31 -30 -31q-29 0 -29 28q0 8 6 16.5t13 9.5l8 2l-10 3q-6 0 -11 1h-9q-46 0 -46 -34q0 -19 33 -28l8 -1q52 -13 52 -60q0 -33 -26 -53.5t-68 -20.5q-63 0 -63 46q0 31 30 31q33 0 33 -31q0 -23 -19 -27l-8 -2l4 -2q12 -3 21 -3q23 0 40 12t17 28q0 17 -33 31
l-7 3q-50 21 -50 55q0 29 22.5 48.5t58.5 19.5q63 0 63 -41z" />
    <glyph glyph-name="t" unicode="t" horiz-adv-x="174" 
d="M189 191l-5 -17h-63l-23 -90q-5 -20 -5 -32q0 -22 20 -22q23 0 39 36l4 9l12 -4l-9 -18q-29 -58 -73 -58t-44 44q0 22 8 53l21 82h-51l4 18h52l46 188h50l-46 -189h63z" />
    <glyph glyph-name="u" unicode="u" horiz-adv-x="291" 
d="M290 54l-13 -17q-31 -40 -58 -40q-34 0 -34 33q0 13 12 63l2 5l2 8l2 7l1 2v2l16 52l-1 1l-6 -18q-15 -44 -53.5 -100t-82.5 -56q-34 0 -34 35q0 10 8 42l4 16l4 13l2 7l1 6q10 35 10 42q0 12 -9 12q-10 0 -23 -22l-8 -14l-11 8l9 12q37 49 65 49q29 0 29 -31v-3l-1 -3
l-11 -48l-6 -22l-9 -31q0 -2 -1.5 -7.5t-1.5 -12.5q0 -16 16 -16q41 0 95 133l15 37h51l-33 -137q-4 -17 -4 -25q0 -11 10 -11q7 0 17 12l12 14l5 9z" />
    <glyph glyph-name="v" unicode="v" horiz-adv-x="255" 
d="M259 175q0 -69 -79 -134q-55 -45 -100 -45q-33 0 -33 31q0 17 5 38t7 26l2 4q13 26 13 61q0 13 -9 13q-2 0 -5 -2.5t-4.5 -4t-7.5 -9.5l-1 -1l-2 -2l-0.5 -1t-1.5 -2l-8 -13l-11 6l14 19q19 25 29 32q15 10 30 10q31 0 31 -30q0 -19 -13 -62l-3 -10q-11 -37 -11 -56
t16 -19q25 0 59 28q48 39 58 80l2 8l-10 -1q-2 -1 -5 -1q-26 0 -26 34q0 39 32 39t32 -36z" />
    <glyph glyph-name="w" unicode="w" horiz-adv-x="356" 
d="M351 160q0 -75 -54 -126q-39 -37 -75 -37q-45 0 -45 64v4l1 17h-1l-16 -23q-43 -62 -91 -62q-27 0 -27 28q0 20 12 63l15 53q0 1 2 11q1 2 1 5q0 11 -9 11q-10 0 -23 -21l-8 -13l-10 7l12 17q31 44 63 44q26 0 26 -28q0 -32 -11 -62l-4 -11l-10 -39q-3 -12 -3 -18
q0 -14 12 -14q15 0 41 32q39 47 58 97l7 18h19l-4 -27q-4 -27 -4 -49q0 -74 28 -74q17 0 43 24q41 38 41 81v5l-1 12l-8 -5q-6 -4 -15 -4q-30 0 -30 33q0 16 10 27t25 11q33 0 33 -51z" />
    <glyph glyph-name="x" unicode="x" 
d="M253 61l-13 -21q-27 -44 -50 -44q-16 0 -38 37l-23 38l-8 -17q-29 -59 -65 -59q-39 0 -39 36q0 15 10.5 26t24.5 11q13 0 22 -9.5t9 -21.5q0 -8 -3 -11.5t-9 -7.5l-6 -4h5q10 0 19 9t19 32l13 30l-40 64q-7 10 -17 10q-9 0 -16 -13l-8 -13l-11 6l9 17q24 47 50 47
q18 0 42 -40l15 -25l3 8q23 59 65 59q35 0 35 -36q0 -34 -32 -34q-31 0 -31 30q0 4 2 10l5 9l-5 -3q-22 -16 -33 -49l-2 -6l29 -48l2 -3q22 -33 34 -33t19 16l5 11z" />
    <glyph glyph-name="y" unicode="y" horiz-adv-x="240" 
d="M226 171q0 -43 -30 -107.5t-76 -121.5q-54 -66 -101 -66q-21 0 -34.5 12t-13.5 31q0 16 11 27t27 11q15 0 26 -11t11 -25q0 -11 -6 -20l-4 -6l8 2q41 10 110 114l4 6l18 31h-1l-7 -8q-38 -44 -86 -44q-35 0 -35 35q0 4 0.5 6.5t2.5 16.5l2 14l3 14l1 6q1 2 3 13q1 1 2 8
l1 6q6 36 6 38q0 15 -8 15q-6 0 -22 -24l-8 -12l-10 3l7 16q10 23 29.5 37.5t36.5 14.5q28 0 28 -30q0 -18 -7 -48l-4 -17l-7 -37q-4 -21 -4 -33q0 -17 15 -17q22 0 50.5 28.5t28.5 51.5q0 16 -9 34l-2 4l-3 5q-10 17 -10 34q0 30 28 30q29 0 29 -37z" />
    <glyph glyph-name="z" unicode="z" horiz-adv-x="283" 
d="M266 35q0 -23 -21.5 -41t-48.5 -18q-28 0 -67 34l-16 14l-8 -8q-16 -16 -37 -16q-38 0 -38 33q0 21 17 35t43 14q16 0 34 -9l6 -2l31 65l-19 9l-32 16q-18 9 -27 9q-28 0 -28 -28v-3l6 5q6 5 13 5q24 0 24 -22q0 -27 -26 -27q-29 0 -29 35q0 28 21 48t51 20q27 0 52 -15
l20 -12l5 6q18 21 41 21q30 0 30 -27q0 -22 -17 -36.5t-42 -14.5q-11 0 -23 4l-9 3l-32 -67l2 -2q18 -14 30 -31l2 -2q1 0 2 -2l3 -4q20 -27 41 -27q11 0 17 7l4 5h-8q-30 0 -30 28q0 32 30 32q33 0 33 -34zM250 177q0 15 -18 15q-14 0 -22 -10l-2 -1l-11 -9l9 -5
q12 -5 22 -5q22 0 22 15zM106 32l-6 6q-13 13 -30 13q-11 0 -19.5 -6.5t-8.5 -14.5q0 -9 8 -14.5t16 -5.5q16 0 29 13z" />
    <glyph glyph-name="asciitilde" unicode="~" horiz-adv-x="2" 
d="M370 821l-9 -14q-39 -61 -94 -61q-18 0 -32 5l-33 12l-21 7l-15 7q-16 4 -24 4q-24 0 -43 -27l-7 -10l-13 10l9 15q36 60 100 60q15 0 34 -6l31 -10l24 -10l11 -3q9 -4 20 -4q26 0 42 25l5 8z" />
    <glyph glyph-name="section" unicode="&#xa7;" horiz-adv-x="238" 
d="M236 141q0 -41 -38 -76l-12 -11l2 -7q2 -7 2 -17q0 -39 -32.5 -67t-77.5 -28q-36 0 -58 16t-22 42q0 37 36 37q16 0 27 -11t11 -27q0 -22 -20 -32l-10 -5l7 -3q7 -3 24 -3q30 0 49.5 15t19.5 39q0 32 -54 75l-10 8q-60 48 -60 92q0 39 33 68l17 15l-5 13q-3 12 -3 20
q0 35 30.5 58.5t74.5 23.5q30 0 49.5 -14.5t19.5 -36.5q0 -16 -10.5 -26.5t-25.5 -10.5q-16 0 -27 11t-11 27q0 26 22 33l5 1v1l-10 2l-7 1q-1 1 -2 1h-6q-23 0 -39.5 -14t-16.5 -34q0 -25 44 -64l9 -8q3 -2 9 -7l10 -8q56 -45 56 -89zM200 105q0 47 -59 86l-9 6
q-38 31 -50 47l-7 9l-5 -6q-14 -12 -14 -34q0 -30 71 -93l9 -8l8 -6q2 -1 5 -5l18 -17q4 -5 11 -13l4 -6l6 6q12 15 12 34z" />
    <glyph glyph-name="guillemotleft" unicode="&#xab;" 
d="M248 194l-30 -32l-30 -33q-8 -9 -32 -33l3 -4l8 -10l4 -4q14 -21 42 -70l-12 -7q-18 27 -44 53q-21 21 -54 43q30 17 53 34q17 12 49 39l33 34zM160 196q-42 -53 -90 -101q29 -39 55 -87l-12 -7q-38 54 -97 95q42 25 72 49q26 20 63 59z" />
    <glyph glyph-name="guillemotright" unicode="&#xbb;" 
d="M251 106q-76 -47 -134 -107l-10 9l91 99q-34 44 -54 87l9 6q40 -56 98 -94zM164 106q-32 -18 -65 -43q-38 -29 -69 -64l-9 10l5 5q50 60 85 93q-34 48 -54 88l9 6q21 -29 44.5 -51.5t53.5 -43.5z" />
    <glyph glyph-name="endash" unicode="&#x2013;" horiz-adv-x="264" 
d="M257 108l-15 -31h-221l16 31h220z" />
    <glyph glyph-name="emdash" unicode="&#x2014;" horiz-adv-x="500" 
d="M493 79h-480v29h480v-29z" />
    <glyph glyph-name="quoteleft" unicode="&#x2018;" horiz-adv-x="130" 
d="M221 587l-13 -4q-45 -14 -60 -51l-4 -10l8 1h6q37 0 37 -39q0 -17 -12 -29.5t-29 -12.5q-38 0 -38 43q0 34 24.5 67t59.5 43l18 5z" />
    <glyph glyph-name="quoteright" unicode="&#x2019;" horiz-adv-x="130" 
d="M209 553q0 -16 -10 -37q-29 -61 -80 -73l-13 -3l-3 13l11 3q45 12 62 50l4 9h-7q-44 0 -44 40q0 17 12 29.5t28 12.5q17 0 28.5 -12.5t11.5 -31.5z" />
    <glyph glyph-name="quotesinglbase" unicode="&#x201a;" horiz-adv-x="130" 
d="M111 37q0 -36 -26.5 -69t-63.5 -42l-12 -3l-4 12l16 6q42 16 57 49l4 9l-8 -1h-5q-39 0 -39 40q0 17 12 29t29 12t28.5 -12t11.5 -30z" />
    <glyph glyph-name="quotedblleft" unicode="&#x201c;" 
d="M340 587l-13 -5q-47 -18 -60 -50l-4 -10h12q41 0 41 -39q0 -17 -12.5 -29.5t-29.5 -12.5t-28 12t-11 31q0 36 26 69.5t62 41.5l14 3zM232 586l-13 -4q-38 -12 -57 -46l-6 -14h11q17 0 28.5 -11t11.5 -27q0 -17 -12.5 -29.5t-29.5 -12.5q-38 0 -38 43q0 34 26.5 68.5
t60.5 41.5l14 3z" />
    <glyph glyph-name="quotedblright" unicode="&#x201d;" 
d="M340 555q0 -35 -26.5 -69t-62.5 -43l-12 -3l-5 13l12 3q39 10 62 51l5 9h-12q-42 0 -42 39q0 17 12 29.5t29 12.5t28.5 -12.5t11.5 -29.5zM232 556q0 -34 -25.5 -67.5t-60.5 -44.5l-16 -5l-3 14l14 4q47 13 59 50l3 9h-13q-16 0 -27 11.5t-11 28.5q0 16 12.5 28t29.5 12
q38 0 38 -40z" />
    <glyph glyph-name="quotedblbase" unicode="&#x201e;" 
d="M232 37q0 -35 -27 -69.5t-61 -41.5l-15 -3l-3 11l14 4q44 12 61 53l3 7h-7q-45 0 -45 39q0 40 41 40q39 0 39 -40zM123 35q0 -32 -27 -65t-62 -43l-14 -4l-3 13l13 4q43 13 59 50l4 9h-7q-43 0 -43 39q0 17 11.5 29t28.5 12q40 0 40 -44z" />
    <glyph glyph-name="dagger" unicode="&#x2020;" horiz-adv-x="262" 
d="M301 229q0 -29 -35 -29q-9 0 -31 5l-60 14l-11 -55l-12 -75q-4 -26 -13 -76q-2 -10 -7 -50l-1 -10q-7 -73 -41 -73q-25 0 -25 30t11 52l4 8l2 7l21 60q8 25 20 59l37 122l-22 -4l-41 -10q-20 -5 -28 -5q-29 0 -29 26q0 28 36 28h10q6 0 16 -3l62 -18l2 27q1 14 1 33v11
q0 72 35 72q25 0 25 -25q0 -17 -23 -63q-6 -11 -15 -32l-10 -23l30 7l34 12l6 1q14 2 19 2q33 0 33 -25z" />
    <glyph glyph-name="bullet" unicode="&#x2022;" horiz-adv-x="130" 
d="M148 342q0 -32 -19.5 -55t-46.5 -23q-19 0 -32.5 13t-13.5 34v4q0 32 19.5 55t47.5 23q20 0 32.5 -14.5t12.5 -36.5z" />
    <glyph glyph-name="ellipsis" unicode="&#x2026;" horiz-adv-x="392" 
d="M378 36q0 -16 -10.5 -27.5t-26.5 -11.5q-15 0 -26 11.5t-11 27.5v1q0 17 10.5 28t26.5 11t26.5 -11.5t10.5 -28.5zM248 36q0 -16 -10.5 -27.5t-26.5 -11.5q-15 0 -26.5 11.5t-11.5 27.5v1q0 16 11 27.5t27 11.5t26.5 -11.5t10.5 -28.5zM117 36q0 -16 -10.5 -27.5
t-26.5 -11.5q-15 0 -26 11.5t-11 27.5v1q0 17 10.5 28t26.5 11t26.5 -11.5t10.5 -28.5z" />
    <glyph glyph-name="periodcentered" unicode="&#xb7;" horiz-adv-x="150" 
d="M174 278q0 -19 -13 -32t-32 -13t-32 13t-13 31v1q0 19 13 32t32 13t32 -13t13 -32z" />
    <glyph glyph-name="afii10030" unicode="&#x41c;" horiz-adv-x="1003" 
d="M774 695q10 2 14.5 -3.5t5.5 -13.5q0 -5 0.5 -10.5t-4.5 -12.5q-23 -31 -36 -64t-19.5 -67t-8 -68.5t-1.5 -69.5q0 -31 -0.5 -65t-3.5 -68.5t-10 -68t-21 -61.5q22 45 49.5 114.5t54.5 148.5q20 61 47 116.5t61 97.5t75 67t89 25q10 0 11 -4.5t2 -12.5q0 -10 -10 -23
q-26 -36 -50 -97t-50 -149q-17 -59 -29 -108t-20 -89q-7 -32 -9.5 -57.5t-1.5 -44.5q3 -74 36 -74q16 0 40 33l13 17l13 -9l-8 -12q-42 -68 -97 -68q-30 0 -48 24t-20 66q-2 57 9.5 124t37.5 147q14 44 30.5 83t36.5 75t44.5 71t54.5 70q8 11 8 15q0 3 3 4.5t-1 1.5
q-47 0 -85 -25t-69 -67t-55.5 -96.5t-45.5 -111.5l-45 -126t-49.5 -115.5t-63 -91t-84.5 -52.5l-10 9q42 16 62.5 57.5t29.5 94t11 107.5t5 97q3 39 8.5 77t17.5 75.5t32 74.5t52 75q4 5 3 9t-1 6q0 3 4 4.5t0 1.5q-42 -8 -73 -31t-55 -56.5t-41 -74.5t-30 -84t-23 -85.5
l-19 -78.5q-9 -38 -22.5 -73t-34 -65.5t-51 -56t-74.5 -44.5q-39 -17 -83 -25t-86 -6q-81 2 -126.5 40t-42.5 101q6 111 152 162q19 7 36 9l50 5h14q66 -2 96 -24l11 -8l-7 -12q-52 28 -108 29q-7 0 -18 -0.5t-45 -5.5q-69 -10 -118 -56q-45 -45 -48 -100q-2 -51 33 -83.5
t97 -40.5q5 -1 10.5 -1h10.5q74 -2 122.5 17t80.5 53t51.5 80.5t35.5 99.5q12 41 27 86t34.5 90t43.5 87t54.5 76.5t67.5 59t83 33.5h-9zM677 683q-23 -21 -54 -34.5t-63.5 -19.5t-64.5 -6.5t-56 3.5q-27 4 -53.5 9t-52 5.5t-49 -5.5t-45.5 -24q-18 -14 -28.5 -33t-14 -38.5
t0.5 -38t16 -31.5q12 -14 29.5 -21t38 -5t41.5 13.5t41 35.5l9 -13q-26 -30 -52 -43t-49.5 -13.5t-43 10.5t-31.5 30q-10 16 -13.5 37t0.5 43t16 44t33 40q32 29 78.5 44t88.5 17q23 2 45 -0.5t44 -5.5q28 -4 52 -10.5t46.5 -8t44.5 5.5t45 29z" />
    <glyph glyph-name="U" unicode="U" horiz-adv-x="862" 
d="M941 675q0 -10 -10 -23l-3 -4q-25 -33 -51.5 -93.5t-55.5 -148.5q-35 -106 -53.5 -181.5t-18.5 -117.5q0 -74 33 -74q16 0 42 33l13 17l13 -9l-8 -12q-45 -68 -100 -68q-30 0 -47.5 24t-17.5 66q0 113 58 271q65 177 151 263l6 6l21 30q8 11 8 15q0 6 -7 6
q-15 0 -40.5 -26.5t-55.5 -69t-61.5 -97.5t-57.5 -112l-83 -181q-42 -90 -97.5 -141t-112.5 -51q-45 0 -72 35t-27 92q0 80 86 231l12 21q81 142 81 201q0 21 -8.5 38.5t-23.5 31t-35 21t-43 7.5q-54 0 -104.5 -30t-89.5 -79.5t-62 -113t-23 -130.5q0 -98 54 -167l14 -18
l-13 -12l-13 17q-57 75 -57 179q0 75 26 143t70 120t101.5 83t119.5 31q70 0 111 -36.5t41 -99.5q-2 -70 -71 -187l-61 -101q-70 -115 -70 -194q0 -29 16.5 -47.5t42.5 -18.5q48 0 97 43t83 115l96 204q34 73 68 131.5t64.5 99.5t57.5 63t48 22q19 0 19 -17z" />
    <glyph glyph-name="afii10017" unicode="&#x410;" horiz-adv-x="829" 
d="M818 417q0 -73 -31 -194l-43 -171q-2 -10 -2 -12q0 -18 21 -19l41 -2l-4 -18q-14 1 -32.5 1h-41.5h-24h-53.5t-32.5 -1l-22 -1l4 19h16q50 0 57 22l26 85l27 101h-307l-17 -34q-48 -97 -117.5 -148.5t-150.5 -51.5q-48 0 -77 21.5t-29 56.5q0 56 51 56q22 0 36.5 -15
t14.5 -38q0 -19 -12.5 -34t-30.5 -17l-9 -2l13 -5q16 -6 39 -6q158 0 226 188l9 22l34 81q83 230 223 330l24 17l-21 10q-45 22 -111 22q-64 0 -122.5 -29.5t-103 -79t-71 -114t-26.5 -134.5q0 -61 22 -120l8 -22l-14 -6l-11 26q-23 55 -23 138q0 74 28 139t76 113.5
t112.5 76.5t138.5 28q64 0 116 -20l28 -11q15 10 32.5 18.5t37.5 15.5l6 -15l-6 -2q-33 -11 -54 -25l16 -11q57 -38 86.5 -98.5t29.5 -130.5zM759 426q0 138 -84 200l-18 13l-18 -12q-38 -26 -74 -77t-71 -138l-8 -22l-6 -14q-1 -4 -5 -15.5t-10.5 -27.5l-14.5 -34l-16 -35
l-10 -21h305l9 38q21 88 21 145z" />
    <glyph glyph-name="afii10019" unicode="&#x412;" horiz-adv-x="941" 
d="M941 554q0 -38 -15.5 -66.5t-57.5 -66.5l-11 -10l-16 -16q-10 -10 -10 -16t12 -15l4 -3q88 -66 88 -148q0 -90 -71 -155q-70 -64 -170 -64q-51 0 -81.5 22t-30.5 57q0 23 15.5 39t38.5 16q21 0 36 -14.5t15 -36.5q0 -20 -13.5 -35t-32.5 -15h-9v-1l10 -7q13 -9 47 -9
q44 0 79.5 12t61 34.5t39.5 54t14 70.5q0 80 -81 128l-4 3l-4 2l-10 4q-11 6 -11 20q0 18 23 38l5 5q85 70 85 138q0 18 -4.5 37t-13 35.5t-19.5 29t-24 18.5l-9 4l-28 -15q-48 -27 -80 -71q-14 -20 -28 -58.5t-27 -95.5v-3l-1 -2l-6 -24q-94 -382 -394 -382q-89 0 -148 40
q-59 41 -59 98q0 47 45 94q69 70 162 70h13.5t19.5 -1l17 -2l1 25q1 51 39 122q37 69 90 121q66 64 150.5 100.5t171.5 36.5q40 0 78 -11l26 -8q42 13 77 14l2 -14q-26 -1 -58 -12l8 -6q54 -41 54 -105zM801 653l-12 5q-36 14 -71 14q-41 0 -82 -11t-81 -31t-76 -49t-66 -65
q-84 -100 -94 -200l-3 -28l9 -2q88 -20 141 -81l6 -7l-12 -10l-4 5q-32 50 -121 66l-17 3q4 -60 36 -107l-13 -8q-22 32 -29 55q-8 27 -10 62h-23q-90 0 -154 -40q-63 -41 -63 -96q0 -50 55 -84t137 -34q202 0 275 196q4 11 12 36t19 66l6 21q44 154 104 221q47 53 109 90z
" />
    <glyph glyph-name="afii10020" unicode="&#x413;" horiz-adv-x="674" 
d="M893 688l-4 -12q-22 -70 -126 -70l-14 1h-13l-8 -7q-12 -9 -22.5 -20.5t-19.5 -29t-15.5 -41.5t-9.5 -57l-7 -66l-4.5 -31t-6.5 -37l-8 -40l-18 -52q-18 -53 -54 -95.5t-84 -73t-106.5 -47t-121.5 -16.5q-45 0 -82.5 10t-65 28t-42.5 43.5t-15 56.5q0 30 15.5 55.5
t42.5 43.5t63 28.5t77 10.5q53 0 86 -16l15 -7l1 1l-10 5q-31 16 -50 58.5t-19 95.5q0 59 26.5 111.5t71.5 92t105 62.5t128 23q25 -1 57.5 -5t72.5 -15l25.5 -6.5l15 -4l9 -2.5t8.5 -2q27 -7 52 -7q27 0 36 25l4 12zM718 611l-88 17q-62 12 -102 12q-54 0 -99.5 -17.5
t-77.5 -49t-50 -74.5t-18 -95q0 -113 92 -160l18 -9l-11 -18l-18 10q-47 26 -111 26q-36 0 -67 -10t-54 -28t-36.5 -42t-13.5 -52q0 -52 47.5 -82t128.5 -30q51 0 97.5 14t84 41t65 66.5t42.5 89.5l17 58l17 79q18 83 44 135t63 89z" />
    <glyph glyph-name="afii10021" unicode="&#x414;" horiz-adv-x="707" 
d="M708 425q0 154 -98 216l-11 7l-7 -5q-54 -39 -77 -236l-7 -61q-6 -53 -13.5 -90t-21.5 -65.5t-37.5 -52.5t-60.5 -51l-23 -17l25 -12q55 -26 100 -26t86.5 33.5t74 88.5t51.5 126t19 145zM269 37l-60 29q-60 28 -92 28q-46 0 -46 -31q0 -21 29 -36.5t69 -15.5q35 0 73 15
zM569 662q-54 20 -104 20q-65 0 -131.5 -27.5t-120.5 -75.5t-88 -112t-34 -137q0 -24 5.5 -47t16.5 -41.5t27 -30t38 -11.5q33 0 62 16t52.5 43t40 61.5t25 70.5t7.5 72t-13 65l10 7q22 -57 21.5 -120.5t-23 -116t-66 -87t-107.5 -34.5q-26 0 -47 12t-36 33t-23 48.5
t-8 58.5q0 48 15.5 94t43 87t65 75.5t81 59.5t91 39t95.5 14q64 0 123 -25l12 -5q31 18 77 31l3 -17q-16 -2 -32 -7.5t-32 -15.5l7 -6q120 -104 120 -243q0 -78 -27 -152.5t-72 -132.5t-104 -93t-123 -35q-20 0 -44 4.5t-51 15.5l-32 12l-16 -9q-47 -26 -107 -26
q-24 0 -44 5.5t-35 15.5t-23.5 23t-8.5 28q0 29 28.5 47.5t76.5 18.5q56 0 127 -33l47 -22l14 14q32 32 57 88.5t31 148.5l2 21q6 61 16 107t26 81t38 61.5t51 48.5l13 10z" />
    <glyph glyph-name="afii10022" unicode="&#x415;" horiz-adv-x="605" 
d="M604 187q0 -80 -83 -136t-199 -56q-118 0 -191 58q-74 59 -74 150q0 77 55 135t145 81l4 1l9 2q3 3 3 6t-3 5l-7 6l-3 3q-40 40 -40 98q0 67 60 111q61 45 151 45q64 0 105 -28t41 -71q0 -25 -14 -41t-36 -16q-19 0 -31.5 13.5t-12.5 32.5t12 32t29 13h9q8 0 8 5
q0 3 -8 14q-38 30 -94 30q-62 0 -107 -36q-44 -35 -44 -85q0 -26 14.5 -53t37.5 -40l7 -4q11 -8 11 -15q0 -14 -16 -20l-23 -8l-11 -3q-181 -49 -181 -206q0 -86 61 -141t156 -55q89 0 154 51t65 121q0 25 -10 46.5t-27.5 37t-42 24.5t-53.5 9q-49 0 -95 -24
q-47 -24 -60 -57l-6 -15l-16 7l5 11q19 43 72 69q50 26 106 26q36 0 67 -10t53.5 -27.5t35 -42t12.5 -53.5z" />
    <glyph glyph-name="afii10026" unicode="&#x418;" horiz-adv-x="862" 
d="M941 675q0 -9 -10 -23l-3 -4q-49 -66 -107 -242q-38 -117 -57 -197q-15 -64 -15 -102q0 -74 33 -74q17 0 42 33l13 17l13 -9l-8 -12q-45 -68 -100 -68q-30 0 -47.5 24.5t-17.5 65.5q0 112 58 271q64 176 151 263l6 6l21 30q8 11 8 15q0 6 -7 6q-6 0 -27 -16
q-40 -31 -88 -105q-53 -82 -100 -184l-83 -181q-41 -89 -97.5 -140.5t-112.5 -51.5q-44 0 -71.5 35t-27.5 92q0 81 86 231l12 21q81 142 81 201q0 41 -32 69.5t-78 28.5q-108 0 -193.5 -108t-85.5 -245q0 -98 54 -167l14 -18l-13 -12l-13 17q-57 75 -57 179
q0 150 95.5 263.5t221.5 113.5q70 0 111 -37t41 -99q0 -69 -71 -187l-61 -101q-70 -116 -70 -194q0 -29 16.5 -47.5t42.5 -18.5q48 0 97 43t83 115l96 204q106 226 191 293q29 23 47 23q19 0 19 -17z" />
    <glyph glyph-name="afii10027" unicode="&#x419;" horiz-adv-x="862" 
d="M941 675q0 -9 -10 -23l-3 -4q-49 -66 -107 -242q-38 -117 -57 -197q-15 -64 -15 -102q0 -74 33 -74q17 0 42 33l13 17l13 -9l-8 -12q-45 -68 -100 -68q-30 0 -47.5 24.5t-17.5 65.5q0 112 58 271q64 176 151 263l6 6l21 30q8 11 8 15q0 6 -7 6q-6 0 -27 -16
q-40 -31 -88 -105q-53 -82 -100 -184l-83 -181q-41 -89 -97.5 -140.5t-112.5 -51.5q-44 0 -71.5 35t-27.5 92q0 81 86 231l12 21q81 142 81 201q0 41 -32 69.5t-78 28.5q-108 0 -193.5 -108t-85.5 -245q0 -98 54 -167l14 -18l-13 -12l-13 17q-57 75 -57 179
q0 150 95.5 263.5t221.5 113.5q70 0 111 -37t41 -99q0 -69 -71 -187l-61 -101q-70 -116 -70 -194q0 -29 16.5 -47.5t42.5 -18.5q48 0 97 43t83 115l96 204q106 226 191 293q29 23 47 23q19 0 19 -17zM833 802q-2 -18 -10 -34.5t-22.5 -30t-35.5 -23.5t-50 -13
q-44 -5 -75.5 11.5t-34.5 45.5q-3 23 8.5 37t34.5 17q24 1 37 -10t16.5 -26t-2.5 -30t-21 -21l-13 -4l18 -5q48 -8 80 16.5t40 68.5z" />
    <glyph glyph-name="afii10028" unicode="&#x41a;" horiz-adv-x="827" 
d="M906 574q0 -19 -12.5 -31.5t-30.5 -12.5q-17 0 -29.5 12t-12.5 30q0 9 6 21l2 4l1 1v2q0 8 -13 8q-29 0 -51.5 -35.5t-31.5 -95.5l-2 -8l-2 -12q-18 -107 -81 -165l-12 -11l13 -15q35 -41 49 -114l3 -17l3 -11q22 -85 51 -85q14 0 27 18t16 43l1 3v3l1 8l18 -3l-3 -17
q-3 -21 -12.5 -39t-22.5 -32t-28.5 -22t-30.5 -8q-70 0 -91 129l-16 95q-2 8 -4.5 16.5t-6.5 16.5l-4 9q-18 -8 -37 -8q-23 0 -39 9l-15 -28q-59 -111 -152 -175q-91 -64 -194 -64q-61 0 -99 24.5t-38 66.5q0 22 15 37t38 15q22 0 37 -14.5t15 -36.5q0 -20 -13 -35t-31 -15
h-1l-12 1v-1l8 -5q26 -20 76 -20q90 0 167.5 63t128.5 175q57 126 57 230q0 90 -42.5 141t-115.5 51q-104 0 -180 -102q-76 -100 -76 -239q0 -107 60 -158l13 -11l-9 -13l-10 8q-70 55 -70 171q0 156 89 263q88 108 219 108q91 0 140 -54.5t49 -153.5q0 -74 -21 -141
l-10 -32l12 1h3q31 0 63 -25l9 8q15 12 26 74l2 12q9 55 26 100.5t40 77t51 49t60 17.5q28 0 47.5 -16.5t19.5 -39.5zM595 273l-1 1q-15 30 -42 30q-3 0 -11 -2l-11 -27q14 -11 29 -11q18 0 36 9z" />
    <glyph glyph-name="afii10031" unicode="&#x41d;" horiz-adv-x="855" 
d="M997 590q0 -28 -15 -57.5t-40.5 -56.5t-58.5 -49t-70 -35l-17 -6l-15 -59q-40 -156 -40 -228q0 -63 30 -63q15 0 39 35l3 4l9 15l13 -10l-15 -22q-45 -66 -89 -66q-28 0 -44.5 27.5t-16.5 75.5q0 107 43 232l16 47l-133 -19l-14 -50q-44 -154 -128.5 -234.5t-190.5 -80.5
q-60 0 -96.5 33t-36.5 88q0 49 24 81l15 20l-13 8q-73 45 -73 153q0 62 28.5 113.5t81 88t127.5 57t168 20.5l39 1q65 2 104.5 9t55.5 16l10 5l12 -11l-7 -8q-12 -14 -21.5 -29t-19.5 -37.5t-19.5 -55.5t-21.5 -81l-22 -92l137 21l12 27q99 222 203 222q47 0 47 -49z
M981 587q0 36 -34 36q-67 0 -134 -184l-12 -37l21 9q33 14 61.5 34.5t50.5 44t34.5 49t12.5 48.5zM614 643l-96 -4q-64 -3 -110.5 -8t-75.5 -13q-50 -14 -90.5 -38.5t-69 -58t-44.5 -74.5t-16 -87q0 -80 60 -131l7 -6l14 13q80 73 268 110l67 13l3 12q17 77 35.5 141
t47.5 131zM524 344l-48 -9q-191 -36 -264 -102l-19 -17l7 -3q29 -13 65 -13q26 0 47 7l16 5l6 -13l-9 -4q-20 -9 -58 -9q-41 0 -72 12l-13 5l-12 -18q-21 -32 -21 -74q0 -48 30 -74.5t84 -26.5q181 0 251 292z" />
    <glyph glyph-name="afii10032" unicode="&#x41e;" horiz-adv-x="637" 
d="M695 463q0 -187 -120 -329t-278 -142q-104 0 -168 67t-64 174q0 92 47.5 178.5t120.5 130.5l20 12l6 -15l-10 -7q-47 -33 -79 -106q-33 -76 -33 -157q0 -113 53.5 -183t139.5 -70q122 0 213 116.5t91 272.5q0 114 -46 183t-121 69q-86 0 -153.5 -83.5t-67.5 -190.5
q0 -57 24.5 -93t64.5 -36q44 0 77 48t33 113q0 55 -25 88l-12 16l11 11l5 -5q44 -44 44 -119q0 -69 -39.5 -119.5t-93.5 -50.5q-46 0 -75.5 41t-29.5 106q0 125 84.5 218.5t197.5 93.5q85 0 134 -62t49 -170z" />
    <glyph glyph-name="afii10108" unicode="&#x45b;" horiz-adv-x="1031" 
d="M817 368l-56 -126l-37 -85l-24 -54.5l-16.5 -36.5t-15.5 -30l-20 -34l-76 -6l12 49t14 49l22.5 70.5t26 88.5t23 97.5t14.5 97.5t-0.5 89t-21.5 72q-30 -28 -57 -76t-52 -121l-6 -22l-5 -14q-1 -4 -6.5 -21.5t-14 -40l-17.5 -46.5t-16 -41l-15 -34q-42 -97 -108 -148.5
t-147 -51.5t-127 37.5t-50 100.5q-8 110 135 166q8 4 17 6t17 4l35 4q-1 9 -1 18.5v19.5q0 75 24 138.5t76 115.5q41 41 89.5 63.5t97.5 29t94.5 -3t79.5 -33.5l8 6q15 10 31.5 18.5t36.5 15.5l7 -15l-6 -2q-15 -5 -28.5 -11.5t-24.5 -14.5l-11 -7q28 -28 38.5 -71t8.5 -95
t-13.5 -110t-28 -115.5t-35 -111.5l-34.5 -98q5 7 8.5 13t8.5 17l13.5 30l23 53l37.5 85.5l57 127.5q34 73 77.5 131.5t85.5 99.5t78.5 63t57.5 22q19 0 19 -17q0 -10 -10 -23l-3 -4q-25 -33 -51.5 -93.5t-55.5 -148.5q-35 -106 -53.5 -181.5t-18.5 -117.5q0 -74 33 -74
q16 0 42 33l13 17l13 -9l-8 -12q-45 -68 -100 -68q-30 0 -47.5 24t-17.5 66q0 113 58 271q65 177 151 263l6 6l21 30q8 11 8 15q0 6 -7 6q-15 0 -48.5 -22t-74 -62.5t-82 -96.5t-71.5 -124zM213 10q158 0 214 188l7 22l29 81q33 110 80 190.5t110 130.5l-7.5 9t-8.5 9
q-26 22 -64.5 27.5t-79.5 -3t-79 -30t-64 -51.5q-48 -56 -68 -117.5t-20 -132.5v-20h12q65 0 98 -21l12 -8l-6 -12q-55 26 -111 26h-4q2 -24 7.5 -48.5t13.5 -46.5l8 -22l-14 -6l-11 26q-8 18 -13 43t-8 53q-7 -1 -16.5 -3t-24.5 -4q-68 -12 -111 -59q-41 -47 -38 -101
q4 -56 47.5 -88.5t109.5 -31.5z" />
    <glyph glyph-name="afii10109" unicode="&#x45c;" horiz-adv-x="1025" 
d="M823 368l-56 -126l-37 -85l-24 -54.5l-16.5 -36.5t-15.5 -30l-20 -34l-76 -6q6 36 22.5 89.5l34 115t32.5 126.5t18.5 124.5t-8 109t-46.5 79.5l-14.5 10t-16.5 8q2 -27 1.5 -69.5t-6 -94t-17.5 -108.5t-31.5 -112.5t-49 -106t-70.5 -89t-94.5 -61.5t-121.5 -24
q-40 0 -74 8t-59 24t-39 40t-14 55q0 55 41 101.5t114 74.5q4 1 7 2.5t9 3t16 3.5t27 5q-1 10 -1 19.5v19.5q0 75 24 138.5t76 115.5q42 42 91 64.5t98.5 28.5t95.5 -4.5t80 -34.5q31 -26 45 -68.5t14.5 -95t-9.5 -111.5t-25 -118t-33.5 -115l-34.5 -101q5 7 8.5 13t8.5 17
l13.5 30l23 53l37.5 85.5l57 127.5q34 73 75.5 131.5t81.5 99.5t74.5 63t55.5 22q19 0 19 -17q0 -10 -10 -23l-3 -4q-25 -33 -51.5 -93.5t-55.5 -148.5q-35 -106 -53.5 -181.5t-18.5 -117.5q0 -74 33 -74q16 0 42 33l13 17l13 -9l-8 -12q-45 -68 -100 -68q-30 0 -47.5 24
t-17.5 66q0 113 58 271q65 177 151 263l6 6l21 30q8 11 8 15q0 6 -7 6q-15 0 -46.5 -22t-70 -62.5t-78 -96.5t-69.5 -124zM344 583q-48 -56 -68 -117.5t-20 -132.5v-21h14q65 0 97 -21l12 -8l-7 -12q-26 13 -49 19.5t-52 6.5q-9 0 -14 -1q2 -23 7.5 -47.5t13.5 -45.5l8 -22
l-14 -6l-11 26q-8 18 -13 42t-8 52q-32 -4 -61.5 -17t-51.5 -34t-35 -50t-13 -65q0 -29 11.5 -50t28.5 -35.5t38 -22.5t41 -9q83 -5 145 28t105.5 89t70.5 128t42 146t19.5 143t2.5 118q-29 7 -62 4.5t-65.5 -13.5t-61.5 -29.5t-50 -42.5z" />
    <glyph glyph-name="afii10029" unicode="&#x41b;" horiz-adv-x="795" 
d="M825 688q18 0 20 -17q0 -10 -10 -23q-26 -36 -50 -97t-50 -149q-17 -59 -29 -108t-20 -89q-7 -32 -9.5 -57.5t-1.5 -44.5q3 -74 36 -74q16 0 40 33l13 17l13 -9l-8 -12q-42 -68 -97 -68q-30 0 -48 24t-20 66q-2 57 9.5 124t37.5 147q14 44 30.5 83t36.5 75t44.5 71
t54.5 70q8 11 8 15q0 6 -5 6q-53 3 -93 -14.5t-70.5 -49t-52.5 -73.5t-38.5 -87.5t-28.5 -92l-22 -86.5q-9 -38 -22.5 -73t-34 -65.5t-51 -56t-74.5 -44.5q-39 -17 -83 -25t-86 -6q-81 2 -126.5 40t-42.5 101q6 111 152 162q19 7 36 9l50 5h14q66 -2 96 -24l11 -8l-7 -12
q-52 28 -108 29q-7 0 -18 -0.5t-45 -5.5q-69 -10 -118 -56q-45 -45 -48 -100q-2 -51 33 -83.5t97 -40.5q5 -1 10.5 -1h10.5q74 -2 122.5 17t80.5 53t51.5 80.5t35.5 99.5q13 45 30 94.5t39.5 97.5t51.5 91t66 75t83 50.5t104 16.5zM659 683q-23 -21 -54 -34.5t-63.5 -19.5
t-64.5 -6.5t-56 3.5q-27 4 -53.5 9t-52 5.5t-49 -5.5t-45.5 -24q-18 -14 -28.5 -33t-14 -38.5t0.5 -38t16 -31.5q12 -14 29.5 -21t38 -5t41.5 13.5t41 35.5l9 -13q-26 -30 -52 -43t-49.5 -13.5t-43 10.5t-31.5 30q-10 16 -13.5 37t0.5 43t16 44t33 40q32 29 78.5 44t88.5 17
q23 2 45 -0.5t44 -5.5q28 -4 52 -10.5t46.5 -8t44.5 5.5t45 29z" />
    <glyph glyph-name="afii10018" unicode="&#x411;" horiz-adv-x="927" 
d="M982 672l-4 -12q-13 -42 -42.5 -58t-65 -17t-71.5 7.5l-63 14.5l-8 -7q-12 -9 -22.5 -20.5t-19.5 -29t-15.5 -41.5t-9.5 -57l-7 -66q-1 -8 -1.5 -15.5t-2.5 -15.5q43 27 88.5 31.5t82.5 -11t60.5 -50.5t23.5 -86q0 -50 -16.5 -94t-46 -76.5t-71 -52t-92.5 -20.5
q-57 -3 -87 21t-30 60q0 24 15.5 40t38.5 16q21 0 36 -14.5t15 -37.5q0 -21 -13.5 -36t-32.5 -15h-9v-1q14 -10 27 -14t30 -4q42 3 73.5 22.5t53.5 52t33 74t11 87.5q0 44 -17.5 73t-45.5 41t-62.5 5.5t-68.5 -32.5q-1 -4 -1.5 -7.5t-1.5 -8.5l-8 -40l-18 -52
q-18 -53 -54 -95.5t-84 -73t-106.5 -47t-121.5 -16.5q-45 0 -82.5 10t-65 28t-42.5 43.5t-15 56.5q0 30 15.5 55.5t42.5 43.5t63 28.5t77 10.5q53 0 86 -16l15 -7l1 1l-10 5q-31 16 -50 58.5t-19 95.5q0 59 26.5 111.5t71.5 92t105 62.5t128 23q36 2 80.5 -6.5t88.5 -19.5
q29 -7 60.5 -17t59.5 -14.5t48.5 -0.5t27.5 25l4 12zM718 611l-88 17q-62 12 -102 12q-54 0 -99.5 -17.5t-77.5 -49t-50 -74.5t-18 -95q0 -113 92 -160l18 -9l-11 -18l-18 10q-47 26 -111 26q-36 0 -67 -10t-54 -28t-36.5 -42t-13.5 -52q0 -52 47.5 -82t128.5 -30
q51 0 97.5 14t84 41t65 66.5t42.5 89.5l17 58l17 79q18 83 44 135t63 89z" />
    <glyph glyph-name="afii10035" unicode="&#x421;" horiz-adv-x="565" 
d="M648 528q0 -117 -70.5 -208.5t-161.5 -91.5q-43 0 -68.5 28.5t-25.5 78.5q0 78 58 139.5t137 65.5l20 1l1 -15h-12q-53 0 -101 -43t-69 -110q-10 -32 -10 -56q0 -34 19 -54t51 -20q83 0 150 86t67 192q0 73 -41 115.5t-110 42.5q-138 0 -240 -151q-65 -97 -88 -201
q-8 -37 -8 -75q0 -104 50.5 -169t130.5 -65q47 0 100 29t92 74l14 16l12 -9l-15 -19q-43 -54 -107 -85t-130 -31q-98 0 -160 69t-62 179q0 174 125 315t280 141q80 0 126 -45t46 -124z" />
    <glyph glyph-name="afii10034" unicode="&#x420;" horiz-adv-x="786" 
d="M873 531q0 -87 -61.5 -159t-152.5 -93l-22 -5l-5 -21q-28 -118 -131 -189.5t-248 -71.5q-93 0 -150.5 38t-57.5 99q0 65 71.5 113.5t169.5 48.5h20l1 22q7 154 121 268t261 114q82 0 133 -46t51 -118zM819 502q0 43 -20 80t-54 54l-12 6l-12 -14q-14 -16 -28 -47
q-24 -53 -32 -118l-22 -173l20 4q70 14 115 73t45 135zM718 648l-13 4q-23 7 -54 7q-79 0 -159.5 -52t-123.5 -131q-40 -73 -45 -154l-2 -32l14 -3q87 -19 145 -67l6 -5l-11 -9l-19 12q-52 33 -113 41l-22 3q7 -66 47 -122l-13 -9q-43 62 -47 131h-14q-95 0 -163.5 -40.5
t-68.5 -95.5q0 -52 54.5 -84t140.5 -32q236 0 299 211q11 37 29 127l4 20q16 80 38 132q24 56 69 118z" />
    <glyph glyph-name="afii10037" unicode="&#x423;" horiz-adv-x="727" 
d="M816 574l-13 -10q-29 -23 -44 -64q-11 -32 -20 -66t-15 -72l-2 -12l-22 -136q-27 -168 -119 -269t-218 -101q-89 0 -89 58q0 19 13.5 31t34.5 12q20 0 32.5 -12t12.5 -31q0 -16 -11 -30l-7 -9h22q141 0 211 157q4 8 7.5 18t8.5 23l3 15t4 18l6 27l-1 1l-11 -18
q-15 -24 -35.5 -44t-45.5 -34.5t-51.5 -22.5t-53.5 -8q-48 0 -96 21l-32 14l-19 -11q-41 -24 -101 -24q-46 0 -75 18t-29 46q0 31 33.5 52t82.5 21q48 0 116 -30l40 -18l16 17q64 68 102 164q40 96 40 188q0 45 -12.5 82.5t-35 64.5t-53.5 41.5t-69 14.5q-93 0 -157 -84
q-65 -85 -65 -203q0 -58 15 -95l10 -25l-16 -8l-7 20q-18 51 -18 109q0 135 81 230q82 96 198 96q87 0 143 -60q55 -58 55 -152q0 -92 -51 -197q-49 -104 -133 -185l-27 -26l26 -11q55 -23 90 -23q51 0 84.5 29t55.5 81q10 23 20 58.5t21 83.5l3 13q0 1 1 4t1 4l2 9l2 9
q21 91 59 155q46 76 87 96l5 3zM270 37l-31 15q-75 37 -118 37q-42 0 -42 -30q0 -21 24.5 -34t64.5 -13q36 0 78 16z" />
    <glyph glyph-name="afii10039" unicode="&#x425;" horiz-adv-x="704" 
d="M842 598q0 -18 -12.5 -31t-29.5 -13t-29 12.5t-12 30.5q0 10 3 17l2 3l3 5q1 0 1 1v2q0 10 -13 10q-23 0 -57.5 -20t-58.5 -47q-60 -68 -81 -179l-6 -32h132l-5 -18h-130l-4 -32q-3 -24 -3 -54q0 -205 76 -205q34 0 54 48l9 22l17 -5l-7 -18q-17 -44 -47 -72.5t-60 -28.5
q-43 0 -72 51t-29 127v1l1 41h-1l-3 -11l-5 -11q-23 -51 -61 -92q-43 -47 -101 -74.5t-114 -27.5q-53 0 -89 27.5t-36 67.5q0 23 14 37.5t36 14.5t37 -15t15 -37q0 -18 -14.5 -33t-33.5 -15h-12l-1 -1l13 -9q33 -23 70 -23q86 0 164 81.5t106 202.5l10 43h-112l5 18h111
l4 36q5 45 5 66q0 95 -42.5 157t-108.5 62q-62 0 -122 -47t-97 -124q-31 -65 -31 -137q0 -49 17 -85l8 -17l-14 -8l-8 17q-19 40 -19 93q0 128 85 227t196 99q80 0 132 -57.5t52 -146.5v-29l4 10q24 61 77 110q74 69 152 69q31 0 50.5 -15t19.5 -39z" />
    <glyph glyph-name="afii10040" unicode="&#x426;" horiz-adv-x="862" 
d="M714 -103q40 2 68.5 36.5t45.5 109.5q-39 -49 -86 -49q-30 0 -47.5 24t-17.5 66q0 113 58 271q65 177 151 263l6 6l21 30q8 11 8 15q0 6 -7 6q-15 0 -40.5 -26.5t-55.5 -69t-61.5 -97.5t-57.5 -112l-83 -181q-42 -90 -97.5 -141t-112.5 -51q-45 0 -72 35t-27 92
q0 80 86 231l12 21q81 142 81 201q0 21 -8.5 38.5t-23.5 31t-35 21t-43 7.5q-54 0 -104.5 -30t-89.5 -79.5t-62 -113t-23 -130.5q0 -98 54 -167l14 -18l-13 -12l-13 17q-57 75 -57 179q0 75 26 143t70 120t101.5 83t119.5 31q70 0 111 -36.5t41 -99.5q-2 -70 -71 -187
l-61 -101q-70 -115 -70 -194q0 -29 16.5 -47.5t42.5 -18.5q48 0 97 43t83 115l96 204q34 73 68 131.5t64.5 99.5t57.5 63t48 22q19 0 19 -17q0 -10 -10 -23l-3 -4q-25 -33 -51.5 -93.5t-55.5 -148.5q-35 -106 -53.5 -181.5t-18.5 -117.5q0 -74 33 -74q16 0 42 33l13 17
l11 -8l1 1v-1l1 -1l-2 -3q-9 -61 -24 -105.5t-42 -73t-67.5 -39.5t-100.5 -5q-33 7 -62.5 18.5t-55.5 16t-50.5 -4t-47.5 -41.5l-9 11q18 24 40 40.5t45 25.5q33 13 66.5 11.5t64 -8.5t57.5 -14t47 -6h5z" />
    <glyph glyph-name="afii10069" unicode="&#x434;" horiz-adv-x="256" 
d="M198 195q3 72 -7.5 143t-30 130t-47 99.5t-58.5 51.5l3 14q43 -11 75.5 -44.5t55.5 -78.5t36 -95t17 -95q5 -49 3 -105t-16.5 -104.5t-44.5 -81.5t-81 -35q-42 0 -62 25.5t-20 68.5v3q0 31 20.5 58.5t49 43.5t58.5 18t49 -16zM189 169q-2 13 -12.5 18.5t-19.5 5.5
q-24 0 -40 -12t-25.5 -30t-13.5 -40t-4 -42v-2q0 -59 39 -59q13 0 27.5 17t25.5 41.5t17.5 52.5t5.5 50z" />
    <glyph glyph-name="o" unicode="o" horiz-adv-x="240" 
d="M230 113q0 -49 -34.5 -84t-83.5 -35q-41 0 -66 25.5t-25 68.5v3q0 46 35 79.5t81 33.5q42 0 67.5 -25t25.5 -66zM178 135q0 56 -40 56q-25 0 -44.5 -36.5t-19.5 -85.5v-2q0 -59 39 -59q27 0 45 41q20 46 20 86z" />
    <glyph glyph-name="afii10065" unicode="&#x430;" horiz-adv-x="298" 
d="M292 50l-12 -16q-29 -39 -55 -39q-35 0 -35 35q0 2 1 5v5l2 7h-1l-16 -16q-35 -35 -78 -35q-34 0 -54.5 19.5t-20.5 52.5q0 55 37.5 96t88.5 41q43 0 64 -32l6 -9l8 38h52l-36 -143q-4 -16 -4 -25q0 -12 11 -12q7 0 17 15l13 19zM209 134q0 53 -44 53q-28 0 -55 -29.5
t-32 -67.5v-4q-1 -4 -1 -14q0 -57 40 -57q31 0 60 34q32 38 32 85z" />
    <glyph glyph-name="afii10024" unicode="&#x416;" horiz-adv-x="990" 
d="M1052 652q31 0 50.5 -15t19.5 -39q0 -18 -12.5 -31t-29.5 -13t-29 12.5t-12 30.5q0 9 3 17l5 8q1 0 1 1v2q0 10 -13 10q-31 0 -65 -25t-64.5 -75.5t-53.5 -126t-30 -177.5q-4 -51 0.5 -86t15 -56.5t26 -31t34.5 -9.5q34 0 54 48l9 22l17 -5l-7 -18q-17 -45 -47 -73
t-60 -28q-31 0 -51 15t-31.5 39.5t-16.5 55.5t-5.5 63.5t3 63.5t7.5 54q11 60 34 127t64 122q-34 -36 -60 -79t-49 -89.5t-44 -93.5t-44 -90.5t-49.5 -82.5t-61.5 -68q-17 -14 -36.5 -26.5t-42.5 -20.5l-9 8q38 20 61 60.5t37 89t22.5 99t17.5 90.5q14 65 35.5 128.5
t64.5 126.5q-44 -52 -76 -117l-65 -132t-73 -131t-100 -115q-35 -34 -77 -56q-18 -10 -44 -18.5t-54 -13t-56 -3.5t-50 11t-35.5 29.5t-13.5 52.5q0 23 14 37.5t36 14.5t37 -15t15 -37q0 -20 -15 -34t-34 -16l-13 -2q17 -15 38.5 -21t44 -6t44.5 5.5t40 14.5
q36 17 65.5 47.5t52.5 68t39 79.5t27 84q16 64 20.5 129.5t-9.5 119.5q-14 51 -47 83.5t-93 32.5q-42 0 -86.5 -24.5t-80.5 -66.5t-59.5 -98t-23.5 -119q0 -48 17 -85l8 -17l-14 -8l-8 17q-19 39 -19 93q0 63 23 122t62 104t89.5 72.5t106.5 27.5q39 0 74.5 -15t62 -44.5
t42 -72t15.5 -97.5q2 -57 -9.5 -117.5t-36.5 -117.5q29 49 54 102.5t51.5 104.5t56.5 97t70 81q17 14 33.5 26t39.5 20l9 -7q-33 -16 -54 -56t-34.5 -88.5t-21 -97.5t-14.5 -83q-5 -27 -12.5 -55t-18.5 -59t-27.5 -65t-40.5 -73q32 39 57 85t47.5 95l46.5 99t54.5 97
t69.5 88t93 73v-2q46 31 102 38z" />
    <glyph glyph-name="afii10025" unicode="&#x417;" horiz-adv-x="589" 
d="M478 554q1 49 -22.5 78t-57.5 39t-72 0t-66 -39q-2 -2 -0.5 -7.5t3.5 -5.5q2 -1 3 0l10 -2q4 1 11 1q16 -4 25 -17.5t5 -33.5q-3 -17 -18 -28t-32 -7q-23 5 -34.5 23t-4.5 48q5 32 30.5 52t59.5 28t72.5 4t70.5 -20t53 -44.5t20 -68.5q-1 -38 -18 -71t-46 -56
q101 -56 99 -178q-1 -50 -25 -99.5t-68.5 -88.5t-107 -62t-140.5 -20q-50 3 -89 16t-65 34t-38 49.5t-9 62.5q4 34 19 66t53 55q41 26 88.5 32t93.5 -3t86.5 -31t68.5 -52l6 -5l-13 -10l-16 15q-26 22 -64 35.5t-80 17.5t-84 -2.5t-76 -25.5q-35 -19 -49 -43t-16 -53
q-2 -38 14.5 -65t44.5 -44t63.5 -25.5t70.5 -8.5q56 -1 101.5 20.5t79 56t53.5 78t25 85.5q7 56 -3 102t-45 75q-23 -14 -50 -22.5t-55 -7.5q-80 3 -82 40q1 15 11 24t24.5 13t32.5 4t36 -1q21 -4 39.5 -8.5t35.5 -11.5q19 23 28 52t10 61zM360 446q-39 5 -57 -2.5
t-18 -20.5q0 -8 5 -13t12.5 -8.5t16.5 -5t17 -1.5q56 1 90 31q-28 16 -66 20z" />
    <glyph glyph-name="afii10033" unicode="&#x41f;" horiz-adv-x="892" 
d="M862 689q-29 -5 -52 -14.5t-43 -22.5q33 -11 65 -23l63 -23q30 -11 58 -15t51 -1t38.5 13t21.5 28l5 12l15 -3l-4 -12q-9 -25 -27.5 -41t-44 -24t-56.5 -10t-63 1q-44 3 -89 15t-89 26l-6 -9q-19 -30 -32 -64t-23 -69.5t-18.5 -70.5t-18.5 -66q-23 -72 -56 -132
t-79.5 -102.5t-107.5 -66t-140 -23.5q-89 0 -148 40q-59 41 -59 98q0 47 45 94q69 70 162 70h13.5t19.5 -1l17 -2l23 -5q88 -20 141 -81l6 -7l-12 -10l-4 5q-32 50 -121 66l-17 3l-16 2h-23q-90 0 -154 -40q-63 -41 -63 -96q0 -50 55 -84t137 -34t134.5 25.5t87 70.5
t57 105.5t43.5 130.5q23 73 52.5 141.5t77.5 120.5l-74.5 24t-70.5 15.5t-71 1t-76 -18.5q-54 -20 -88.5 -63.5t-36.5 -113.5q-1 -45 28 -76t79 -31q11 0 20 0.5t18 4.5l11 -14q-36 -10 -68 -6t-55.5 20.5t-37 44t-13.5 65.5q0 66 40 114t100 77q43 20 90.5 29.5t94.5 7.5
q43 2 86.5 -6t86.5 -21q24 16 52 27.5t61 17.5zM877 514q-18 -18 -36 -51.5t-34 -76.5q-20 -53 -31.5 -97t-16.5 -79t-6 -60.5t-1 -42.5q0 -74 33 -74q16 0 42 33l13 17l13 -9l-8 -12q-45 -68 -100 -68q-30 0 -47.5 24t-17.5 66q0 31 6.5 70.5t17.5 80t26 79.5t32 71
q40 74 95 129h20z" />
    <glyph glyph-name="afii10036" unicode="&#x422;" horiz-adv-x="1016" 
d="M1190 607q-19 -35 -49 -53t-66 -24.5t-75.5 -3t-77 12t-71 18.5t-57.5 18q-20 5 -40 11.5l-40 13.5q-2 -4 -4.5 -7.5l-4.5 -6.5q-19 -30 -32 -64t-23 -69.5t-18.5 -70.5t-18.5 -66q-23 -72 -56 -132t-79.5 -102.5t-107.5 -66t-140 -23.5q-44 0 -73 10t-59 30
q-59 41 -59 98q0 28 15 51.5t42 41t63.5 27.5t77.5 10q53 0 86 -16q-13 7 -24.5 22t-20 35.5t-13.5 45t-5 50.5q0 51 20.5 98.5t53.5 85.5q45 50 110 79.5t143 29.5q20 -1 41 -3.5t41 -6.5q20 -5 40.5 -9.5t40.5 -9.5q48 30 110 42l2 -14q-52 -9 -90 -34l78 -24
q19 -6 48 -16.5t61.5 -20t66.5 -17t63.5 -7.5t52 8.5t32.5 31.5l5 12l15 -3zM340 563q-31 -33 -47.5 -77t-16.5 -92q0 -113 92 -160l18 -9l-11 -18l-18 10q-47 26 -111 26q-36 0 -70 -7.5t-60.5 -22t-43 -36t-16.5 -49.5q0 -50 55 -84q28 -17 54 -25.5t67 -8.5
q82 0 134.5 25.5t87 70.5t57 105.5t43.5 130.5q23 75 54 144t80 122q-47 15 -92 26.5t-88.5 10t-85.5 -20t-82 -61.5zM875 528q-30 -12 -49.5 -43t-32 -68t-20.5 -75t-15 -65l-18.5 -65.5t-32.5 -84.5t-55 -80t-85 -53l-7 7q34 15 56 49t36 74.5t23 82t18 73.5t22.5 71
t34 75t49 65t68.5 43zM985 473q-15 -14 -31 -40t-30 -59q-17 -41 -27 -82.5t-14.5 -77.5t-5.5 -65t-1 -45q0 -72 32 -72q17 0 40 32l13 16l12 -8l-7 -12q-44 -66 -96 -66q-29 0 -46 23.5t-17 63.5q0 52 11.5 108t32.5 108.5t51 98t66 77.5h17z" />
    <glyph glyph-name="afii10041" unicode="&#x427;" horiz-adv-x="862" 
d="M914 675q-12 0 -32.5 -19t-44.5 -51t-50 -74.5t-51 -88.5q-44 -90 -101 -141t-114 -51q-49 0 -78 34q-18 21 -23.5 43t-2 45t13 47.5t21.5 51.5q13 29 23.5 57t10.5 49t-8.5 38.5t-23.5 31t-35 21t-43 7.5q-54 0 -104.5 -30t-89.5 -79.5t-62 -113t-23 -130.5
q0 -98 54 -167l14 -18l-13 -12l-13 17q-57 75 -57 179q0 75 26 143t70 120t101.5 83t119.5 31q70 0 111 -36.5t41 -99.5q2 -28 -9 -57t-25 -60l-22 -48t-19 -49q-5 -16 -6.5 -30.5t3 -26t16.5 -18t34 -6.5q24 0 49 11t49 32t46 50t40 65q29 56 59.5 105t59 85t53.5 56.5
t43 20.5q19 0 19 -17q0 -10 -10 -23l-3 -4q-25 -33 -51.5 -93.5t-55.5 -148.5q-35 -106 -53.5 -181.5t-18.5 -117.5q0 -74 33 -74q16 0 42 33l13 17l13 -9l-8 -12q-45 -68 -100 -68q-30 0 -47.5 24t-17.5 66q0 113 58 271q65 177 151 263l6 6l21 30q8 11 8 15q0 6 -7 6z" />
    <glyph glyph-name="afii10042" unicode="&#x428;" horiz-adv-x="1237" 
d="M769 20q17 -6 39.5 2.5t45.5 27.5q12 10 28.5 27.5t38.5 52t50.5 92.5t66.5 149q33 75 66.5 133.5t64.5 99t58.5 62t48.5 21.5q19 0 19 -17q0 -10 -10 -23l-3 -4q-25 -33 -51.5 -93.5t-55.5 -148.5q-35 -106 -53.5 -181.5t-18.5 -117.5q0 -74 33 -74q16 0 42 33l13 17
l13 -9l-8 -12q-45 -68 -100 -68q-30 0 -47.5 24t-17.5 66q0 113 58 271q65 177 151 263l6 6l21 30q8 11 8 15q0 6 -7 6q-15 0 -41.5 -26t-57 -68.5t-61.5 -97.5t-55 -113q-38 -93 -68 -152.5t-53.5 -96t-42 -56t-34.5 -31.5q-48 -37 -95 -37q-37 2 -61.5 25t-24.5 65
q0 57 16 125t45 148q65 177 151 263l6 6l21 30q8 11 8 15q0 6 -7 6q-15 0 -40.5 -26.5t-55.5 -69t-61.5 -97.5t-57.5 -112l-68.5 -144.5t-46.5 -89.5t-32 -51.5t-26 -29.5q-29 -28 -59.5 -43t-60.5 -15q-45 0 -72 35t-27 92q0 80 86 231l12 21q81 142 81 201q0 21 -8.5 38.5
t-23.5 31t-35 21t-43 7.5q-54 0 -104.5 -30t-89.5 -79.5t-62 -113t-23 -130.5q0 -98 54 -167l14 -18l-13 -12l-13 17q-57 75 -57 179q0 75 26 143t70 120t101.5 83t119.5 31q70 0 111 -36.5t41 -99.5q-1 -35 -18.5 -81.5t-52.5 -105.5l-61 -101q-70 -115 -70 -194
q0 -29 16.5 -47.5t42.5 -18.5q53 0 106 51q10 10 22 25t30 48t46 89l72 149q34 73 68 131.5t64.5 99.5t57.5 63t48 22q19 0 19 -17q0 -10 -10 -23l-3 -4q-25 -33 -51.5 -93.5t-55.5 -148.5q-35 -105 -56.5 -188t-21.5 -125q0 -37 4.5 -55t21.5 -18z" />
    <glyph glyph-name="afii10043" unicode="&#x429;" horiz-adv-x="1237" 
d="M1201 70l3 -1q-17 -73 -44 -125.5t-69 -82.5t-102.5 -35.5t-143.5 14.5q5 -3 -1 -1l-4 1h0.5h0.5l-4 2l-75.5 25t-72 10.5t-65.5 -22.5t-57 -74l-18 2q26 50 56.5 81.5t68.5 45.5q49 19 99 13.5t101 -18.5l19 -5q37 -10 72.5 -17.5t69.5 -5.5q22 1 42 9.5t38 26t33 46
t27 70.5q-36 -40 -79 -40q-30 0 -47.5 24t-17.5 66q0 113 58 271q65 177 151 263l6 6l21 30q8 11 8 15q0 6 -7 6q-15 0 -41.5 -26t-57 -68.5t-61.5 -97.5t-55 -113q-38 -93 -68 -152.5t-53.5 -96t-42 -56t-34.5 -31.5q-48 -37 -95 -37q-37 2 -61.5 25t-24.5 65q0 57 16 125
t45 148q65 177 151 263l6 6l21 30q8 11 8 15q0 6 -7 6q-15 0 -40.5 -26.5t-55.5 -69t-61.5 -97.5t-57.5 -112l-68.5 -144.5t-46.5 -89.5t-32 -51.5t-26 -29.5q-29 -28 -59.5 -43t-60.5 -15q-45 0 -72 35t-27 92q0 80 86 231l12 21q81 142 81 201q0 21 -8.5 38.5t-23.5 31
t-35 21t-43 7.5q-54 0 -104.5 -30t-89.5 -79.5t-62 -113t-23 -130.5q0 -98 54 -167l14 -18l-13 -12l-13 17q-57 75 -57 179q0 75 26 143t70 120t101.5 83t119.5 31q70 0 111 -36.5t41 -99.5q-1 -35 -18.5 -81.5t-52.5 -105.5l-61 -101q-70 -115 -70 -194q0 -29 16.5 -47.5
t42.5 -18.5q53 0 106 51q10 10 22 25t30 48t46 89l72 149q34 73 68 131.5t64.5 99.5t57.5 63t48 22q19 0 19 -17q0 -10 -10 -23l-3 -4q-25 -33 -51.5 -93.5t-55.5 -148.5q-35 -105 -56.5 -188t-21.5 -125q0 -37 4.5 -55t21.5 -18q17 -6 39.5 2.5t45.5 27.5q12 10 28.5 27.5
t38.5 52t50.5 92.5t66.5 149q33 75 66.5 133.5t64.5 99t58.5 62t48.5 21.5q19 0 19 -17q0 -10 -10 -23l-3 -4q-25 -33 -51.5 -93.5t-55.5 -148.5q-35 -106 -53.5 -181.5t-18.5 -117.5q0 -74 33 -74q16 0 42 33l13 17l5 -4z" />
    <glyph glyph-name="afii10044" unicode="&#x42a;" horiz-adv-x="848" 
d="M662 608q7 0 21 2t27.5 7t23.5 13t11 20q0 9 -5.5 14t-13.5 7.5t-16.5 3t-14.5 0.5q-29 0 -63.5 -16.5t-63.5 -34.5q23 -8 45.5 -12t48.5 -4zM730 452q26 -19 40 -51t13 -76q-2 -65 -30.5 -125.5t-76.5 -108t-112 -76t-138 -29.5q-42 0 -76 15.5t-58.5 42t-38.5 62.5
t-16 77q2 72 23 134t56.5 115t84.5 96.5t107 78.5q-52 14 -108.5 27t-115.5 13q-41 0 -79 -18t-66.5 -49t-45.5 -71.5t-17 -85.5q0 -105 86 -152l22 -12l-7 -15l-17 9q-100 52 -100 171q0 54 23 102.5t62 85.5t90 58.5t108 21.5q15 0 32.5 -2.5t42.5 -9.5t58 -18.5t78 -29.5
q27 21 64.5 37.5t71.5 21.5t58 -4.5t23 -39.5q-1 -17 -15 -29t-33 -19t-38 -10t-31 -3q-32 0 -61 4t-58 11q-32 -20 -59 -44t-50 -50q-55 -65 -84.5 -138t-34.5 -153q-3 -40 5 -77.5t26 -66.5t46 -46.5t66 -17.5q55 2 103.5 25t84 60.5t56 85.5t20.5 99q0 29 -5.5 59
t-19 53.5t-35.5 38t-53 12.5q-32 -2 -60.5 -18.5t-50.5 -42.5t-35.5 -60t-14.5 -70q0 -20 4.5 -37t13 -30t20.5 -20t26 -6l-2 -13q-17 -2 -31 6t-24.5 22.5t-16.5 34.5t-6 43q1 43 19.5 83t48 71.5t67.5 51t79 21.5q26 2 50.5 -4.5t41.5 -20.5z" />
    <glyph glyph-name="afii10046" unicode="&#x42c;" horiz-adv-x="803" 
d="M238 633q-33 -23 -61.5 -57t-49.5 -75t-32.5 -86.5t-11.5 -92.5q0 -98 54 -167l14 -18l-13 -12l-13 17q-57 75 -57 179q0 49 11.5 96t32.5 88.5t49.5 76t63.5 60.5q22 16 50.5 29t58 19.5t57.5 4.5t50 -15.5t35.5 -41t13.5 -71.5q0 -24 -12.5 -56t-31 -69l-39.5 -77.5
t-37 -80.5q-21 -52 -31.5 -99.5t2.5 -85.5q12 -36 39 -61t79 -29q55 2 103.5 25t84 60.5t56 85.5t20.5 99q0 29 -5.5 59t-19 53.5t-35.5 38t-53 12.5q-32 -2 -60.5 -18.5t-50.5 -42.5t-35.5 -60t-14.5 -70q0 -20 4.5 -37t13 -30t20.5 -20t26 -6l-2 -13q-17 -2 -31 6
t-24.5 22.5t-16.5 34.5t-6 43q1 43 19.5 83t48 71.5t67.5 51t79 21.5q51 3 87 -25q26 -19 40 -51t13 -76q-2 -65 -29.5 -125.5t-74.5 -108t-110.5 -76t-137.5 -29.5q-62 3 -98.5 31t-51.5 71t-10.5 93.5t24.5 98.5q16 40 37.5 79t40 76.5t31.5 73.5t13 70q0 49 -19.5 70
t-47.5 23t-59.5 -10t-56.5 -30z" />
    <glyph glyph-name="afii10045" unicode="&#x42b;" horiz-adv-x="998" 
d="M1088 680q-30 -31 -50 -59t-35.5 -59.5t-29 -69.5l-30.5 -89q-35 -106 -53.5 -181.5t-18.5 -117.5q0 -74 33 -74q16 0 42 33l13 17l13 -9l-8 -12q-45 -68 -100 -68q-32 0 -47 20.5t-18 53.5t3.5 74t16.5 81t22 75l20 57q22 60 45 107.5t49 87t56.5 74.5t68.5 71zM238 633
q-33 -23 -61.5 -57t-49.5 -75t-32.5 -86.5t-11.5 -92.5q0 -98 54 -167l14 -18l-13 -12l-13 17q-57 75 -57 179q0 49 11.5 96t32.5 88.5t49.5 76t63.5 60.5q22 16 50.5 29t58 19.5t57.5 4.5t50 -15.5t35.5 -41t13.5 -71.5q0 -24 -12.5 -56t-31 -69l-39.5 -77.5t-37 -80.5
q-21 -52 -31.5 -99.5t2.5 -85.5q12 -36 39 -61t79 -29q55 2 103 24.5t83.5 59t55.5 84t20 98.5q0 29 -5.5 59t-19 53.5t-35.5 38t-53 12.5q-32 -2 -60 -18t-50 -41.5t-35 -58.5t-14 -69q0 -20 4.5 -37t13 -30t20.5 -20t26 -6l-2 -13q-17 -2 -31 6t-24.5 22.5t-16.5 34.5
t-6 43q1 43 19.5 83t48 71.5t67.5 51t79 21.5q26 2 49 -3.5t40 -19.5q26 -19 40 -51t13 -76q-2 -65 -30 -126t-75 -108.5t-111 -76.5t-138 -30q-62 3 -99 31t-53 71t-12 93.5t24 98.5q16 40 37.5 79t40 76.5t31.5 73.5t13 70q0 49 -18.5 70t-46 23t-58.5 -10t-56 -30z" />
    <glyph glyph-name="afii10047" unicode="&#x42d;" horiz-adv-x="634" 
d="M552 372q-35 -26 -60 -34t-43 -5.5t-30.5 13t-22.5 22.5q-11 12 -19.5 23t-19.5 14.5t-26 -4t-38 -32.5l-15 4q31 34 56 48.5t45 15.5t35.5 -8t27.5 -21t22.5 -24t23.5 -17.5t28.5 -0.5t38.5 28q4 37 3.5 76.5t-8 75t-23 65t-40.5 47.5q-18 14 -42.5 19.5t-51.5 3.5
t-53 -12.5t-46 -29.5q-2 -2 -1 -7.5t3 -5.5q2 -1 3 0l11 -2q4 1 11 1q15 -4 24 -17.5t4 -33.5q-5 -17 -21 -28t-33 -7q-23 4 -34 22t-2 48q4 20 21.5 37.5t43 29.5t55.5 17.5t60 0.5q66 -6 106 -41t59 -86t21 -111.5t-7 -118.5q-11 -69 -40 -131.5t-77 -110.5t-114.5 -76.5
t-151.5 -29.5q-51 3 -92 16t-69 34t-41 49.5t-10 62.5q4 33 20 65t54 55q42 26 91 32t96 -3t88.5 -31t70.5 -52l6 -5l-13 -10l-17 15q-27 22 -66 35.5t-82 17.5t-86 -2.5t-78 -25.5t-49.5 -42.5t-16.5 -52.5q-2 -38 15.5 -64.5t47 -44t67 -25.5t73.5 -8q67 -2 119 30
t90.5 84t63 118.5t35.5 134.5z" />
    <glyph glyph-name="afii10048" unicode="&#x42e;" horiz-adv-x="1296" 
d="M1268 469q0 -187 -120 -329t-278 -142q-104 0 -168 67t-64 174q0 50 13 96h-76l-3 -24q-8 -65 -33 -122.5t-68.5 -100.5t-105 -68t-142.5 -25t-128.5 37t-47.5 100q0 111 145 166q9 4 18 6t17 4l16 3l1 24q3 75 30 141t70.5 115t100.5 77t120 28q73 0 123 -34l12 -8l12 9
l8 -9l-20 -18q-29 -26 -49 -49.5t-33.5 -49t-21 -54t-11.5 -64.5l-8 -67h79q6 17 13 33t16 32q49 88 121 131l20 12l6 -15l-10 -7q-48 -34 -79 -106q-9 -20 -15 -40t-11 -40h61l-5 -17h-59q-2 -15 -3 -30t-1 -30q0 -112 53 -183q54 -70 140 -70q121 0 213 116q91 116 91 273
q0 115 -46 183q-47 69 -121 69q-87 0 -154 -84q-67 -82 -67 -190q0 -57 24.5 -93t64.5 -36q44 0 77 48t33 113q0 56 -25 88l-12 16l11 11l5 -5q44 -44 44 -119q0 -70 -40 -120q-39 -50 -93 -50q-46 0 -75.5 40.5t-29.5 106.5q0 125 84 218q85 94 198 94q85 0 134 -61.5
t49 -170.5zM401 335l5 18l104 -1q14 66 44.5 126.5t74.5 108.5l20 22l-17 9q-45 24 -104 24q-56 0 -105 -23.5t-85.5 -64.5t-57.5 -96t-21 -118v-27l32 1q33 1 57 -4.5t40 -16.5l12 -8l-7 -12q-54 26 -110 26h-13.5t-11.5 -1q4 -36 14 -70t25 -65l-12 -8q-35 67 -41 140
l-23 -4q-35 -6 -64 -21.5t-50 -37t-33 -48t-12 -53.5q0 -55 42.5 -88t114.5 -33q130 0 196.5 77t87.5 224l3 24h-105z" />
    <glyph glyph-name="afii10049" unicode="&#x42f;" horiz-adv-x="830" 
d="M895 677l-15.5 -16t-13.5 -16q41 -27 66 -70t27 -103l-16 5q-3 53 -27 91.5t-61 63.5q-18 -23 -31.5 -46.5t-25.5 -51t-23 -60l-25 -74.5q-35 -106 -53.5 -181.5t-18.5 -117.5q0 -74 33 -74q16 0 42 33l13 17l13 -9l-8 -12q-45 -68 -100 -68q-30 0 -44.5 17.5t-19 46.5
t-0.5 65.5t12.5 74t19.5 72.5t20 61q-63 1 -98.5 -14t-57 -41t-35 -59.5t-32.5 -68.5q-24 -45 -52 -76t-61.5 -50t-74 -26.5t-90.5 -4.5q-75 4 -111.5 37.5t-32.5 103.5q6 111 152 162q19 7 36 9l50 5h14l-8 -15q-7 0 -18 -0.5t-45 -5.5q-69 -10 -118 -56q-45 -45 -48 -100
q-2 -51 18.5 -83.5t82.5 -40.5q50 -7 86 4.5t62.5 35.5t47.5 57.5t41 69.5q17 31 37 59.5t45 51t56 36.5t71 16q-41 2 -72.5 17.5t-52 39t-29.5 51.5t-6 55q6 47 30.5 83t60 61t80 39t91 16t91.5 -7.5t83 -31.5q16 17 35 35zM494 528q-10 -38 -5 -74t25.5 -63t57.5 -41
t93 -8q1 2 1.5 3.5t1.5 3.5q18 50 37 91t39.5 76t44 65.5t51.5 60.5q-45 25 -99 31.5t-104 -7.5t-89 -48.5t-54 -89.5z" />
    <glyph glyph-name="afii10107" unicode="&#x45a;" horiz-adv-x="803" 
d="M868 677q-17 -17 -29 -32q40 -28 65 -70.5t27 -102.5l-16 5q-3 52 -27 90.5t-60 64.5q-18 -24 -31.5 -47.5t-25 -50.5t-23 -59.5l-25.5 -74.5q-35 -106 -53.5 -181.5t-18.5 -117.5q0 -74 33 -74q16 0 42 33l13 17l13 -9l-8 -12q-45 -68 -100 -68q-30 0 -44.5 17.5
t-19 46.5t-0.5 65.5t12.5 73.5t19.5 72.5t20 61.5q-63 1 -99 -14t-57.5 -40.5t-35 -59t-32.5 -69.5q-24 -45 -52 -76t-61.5 -50t-74 -26.5t-90.5 -4.5q-48 1 -77 20.5t-29 54.5q0 56 51 56q22 0 36.5 -15t14.5 -38q0 -19 -12.5 -34t-30.5 -17l-9 -1v-1l13 -5q8 -3 18 -3.5
t21 -2.5q42 -5 73 7t55.5 36t44.5 57l40 69q17 31 37 59.5t45 51t56 36.5t71 16q-41 2 -72.5 17.5t-52 39t-29.5 51.5t-6 55q6 47 30.5 83t60.5 61t80 39t90.5 16t91.5 -7.5t83 -31.5q9 8 17.5 17t18.5 18zM466 528q-10 -38 -5 -74t25.5 -63t58 -41t93.5 -8q1 2 1.5 3.5
t1.5 3.5q18 50 37 91t39.5 76t44 65.5t50.5 60.5q-45 26 -99 32.5t-104 -7.5t-89 -48.5t-54 -90.5z" />
    <glyph glyph-name="afii10066" unicode="&#x431;" horiz-adv-x="240" 
d="M205 177q-12 50 -31 96l-38 88q-17 40 -30 75t-11.5 64t22.5 51.5t71 37.5q22 7 43 13t38.5 15.5t28.5 23.5t13 36l13 -3q-4 -39 -16 -64.5t-28.5 -42t-36.5 -25.5t-41 -16q-38 -12 -56.5 -24.5t-22.5 -29t4 -40.5t25 -59l25 -56.5t23.5 -60.5t18 -62t7.5 -62
q1 -27 -6.5 -51.5t-22.5 -44t-37 -31t-48 -11.5q-42 0 -66.5 25.5t-24.5 68.5v3q0 46 35 79q34 34 81 34q43 0 68 -27zM178 135q0 56 -40 56q-26 0 -45 -37q-19 -35 -19 -85v-2q0 -59 39 -59q27 0 45 41q20 48 20 86z" />
    <glyph glyph-name="afii10067" unicode="&#x432;" horiz-adv-x="252" 
d="M78 158l13 14q30 32 76 32q30 0 51 -22t21 -54q0 -26 -10.5 -49.5t-28.5 -42t-42.5 -29.5t-51.5 -11q-43 0 -67 21.5t-24 58.5q0 8 1 15.5l2 14.5q11 70 22.5 128.5t25 110.5t29.5 100.5t37 100.5q20 50 44.5 69t45.5 18q23 2 31.5 -18t7.5 -62q-1 -43 -14.5 -93.5
t-37 -100t-55.5 -94t-70 -75.5q-2 -8 -3 -16t-3 -16zM188 377q17 45 29 86.5t16 79.5q5 43 0.5 60t-14.5 15t-22.5 -20.5t-22.5 -46.5q-2 -4 -6.5 -16.5t-14 -47.5t-25 -99t-38.5 -170q26 22 50.5 60.5t47.5 98.5zM185 129q0 52 -43 52q-16 0 -30.5 -9.5t-26 -26t-18 -38.5
t-6.5 -47v-2q0 -48 37 -48q18 0 34 11t28 28t18.5 38t6.5 42z" />
    <glyph glyph-name="afii10070" unicode="&#x435;" horiz-adv-x="211" 
d="M195 153q0 -30 -25.5 -51t-65.5 -23l-5 -1h-31v-12q0 -49 39 -49q28 0 58 30l9 9l9 -8l-14 -14q-37 -37 -86 -37q-70 0 -70 73q0 56 36 95.5t86 39.5q60 0 60 -52zM157 162q0 31 -26 31q-20 0 -37.5 -25.5t-22.5 -63.5l-2 -14h17q47 0 65 46q6 15 6 26z" />
    <glyph glyph-name="afii10074" unicode="&#x438;" horiz-adv-x="291" 
d="M290 54l-13 -17q-31 -40 -58 -40q-34 0 -34 33q0 13 12 63l2 5l2 8l2 7l1 2v2l16 52l-1 1l-6 -18q-15 -44 -53.5 -100t-82.5 -56q-34 0 -34 35q0 10 8 42l4 16l4 13l2 7l1 6q10 35 10 42q0 12 -9 12q-10 0 -23 -22l-8 -14l-11 8l9 12q37 49 65 49q29 0 29 -31v-3l-1 -3
l-11 -48l-6 -22l-9 -31q0 -2 -1.5 -7.5t-1.5 -12.5q0 -16 16 -16q41 0 95 133l15 37h51l-33 -137q-4 -17 -4 -25q0 -11 10 -11q7 0 17 12l12 14l5 9z" />
    <glyph glyph-name="afii10075" unicode="&#x439;" horiz-adv-x="291" 
d="M290 54l-13 -17q-31 -40 -58 -40q-34 0 -34 33q0 13 12 63l2 5l2 8l2 7l1 2v2l16 52l-1 1l-6 -18q-15 -44 -53.5 -100t-82.5 -56q-34 0 -34 35q0 10 8 42l4 16l4 13l2 7l1 6q10 35 10 42q0 12 -9 12q-10 0 -23 -22l-8 -14l-11 8l9 12q37 49 65 49q29 0 29 -31v-3l-1 -3
l-11 -48l-6 -22l-9 -31q0 -2 -1.5 -7.5t-1.5 -12.5q0 -16 16 -16q41 0 95 133l15 37h51l-33 -137q-4 -17 -4 -25q0 -11 10 -11q7 0 17 12l12 14l5 9zM290 331q-4 -29 -25.5 -53t-65.5 -29q-34 -4 -58.5 9.5t-26.5 36.5q-2 19 7 30.5t26 13.5q18 2 27.5 -8t11.5 -27
q3 -28 -17 -36l-10 -4l14 -4q36 -6 62 14.5t32 55.5z" />
    <glyph glyph-name="afii10081" unicode="&#x43f;" horiz-adv-x="291" 
d="M291 51l-10 -13q-32 -42 -63 -42q-32 0 -32 34q0 31 12 61l2 5q15 37 15 57q0 19 -15 19q-42 0 -96 -131l-17 -41h-51l40 156q0 12 -10 12q-11 0 -24 -24l-6 -11l-11 7l9 13q35 50 67 50q27 0 27 -29q0 -16 -20 -83q-5 -14 -12 -36l-11 -28v-1l9 20q70 156 136 156
q36 0 36 -34q0 -29 -15 -69l-3 -8q-12 -32 -12 -56q0 -13 9 -13q8 0 23 20l11 15z" />
    <glyph glyph-name="afii10079" unicode="&#x43d;" horiz-adv-x="291" 
d="M224 200h52l-40 -156q0 -12 10 -12t24 24l6 11l11 -7l-9 -13q-35 -50 -67 -50q-27 0 -27 29q0 8 3 26.5t12 49.5h-85q-1 -3 -1.5 -5.5t-1.5 -5.5l-23 -91h-52l40 156q0 12 -10 12q-11 0 -24 -24l-6 -11l-11 7l9 13q35 50 67 50q27 0 27 -29q0 -15 -10 -58h85z" />
    <glyph glyph-name="afii10080" unicode="&#x43e;" horiz-adv-x="240" 
d="M230 113q0 -49 -34.5 -84t-83.5 -35q-41 0 -66 25.5t-25 68.5v3q0 46 35 79.5t81 33.5q42 0 67.5 -25t25.5 -66zM178 135q0 56 -40 56q-25 0 -44.5 -36.5t-19.5 -85.5v-2q0 -59 39 -59q27 0 45 41q20 46 20 86z" />
    <glyph glyph-name="afii10082" unicode="&#x440;" horiz-adv-x="263" 
d="M256 123q0 -53 -34 -90.5t-81 -37.5q-51 0 -66 44l-3 9h-1l-42 -175h-50l59 239q26 105 44.5 137t79.5 76l33 24l7 -10l-11 -7q-45 -29 -77 -130l-13 -41l1 -1l11 13q26 31 70 31q33 0 53 -22t20 -59zM203 118q0 62 -48 62q-49 0 -70 -76q-4 -14 -4 -29q0 -62 46 -62
q29 0 52.5 32.5t23.5 72.5z" />
    <glyph glyph-name="afii10083" unicode="&#x441;" horiz-adv-x="201" 
d="M192 157q0 -15 -10.5 -25.5t-24.5 -10.5q-32 0 -32 33q0 21 17 29l10 5l-4 2q-10 2 -12 2q-15 0 -28.5 -9t-23 -24t-15.5 -35.5t-6 -43.5q0 -64 45 -64q21 0 44 24l14 15l11 -6l-14 -16q-33 -37 -77 -37q-35 0 -56 22t-21 60q0 26 9.5 49t26 40t38.5 27t46 10
q27 0 45 -13t18 -34z" />
    <glyph glyph-name="afii10084" unicode="&#x442;" horiz-adv-x="438" 
d="M431 52l-12 -19q-23 -37 -59 -37q-34 0 -34 32q0 11 3 22l25 91q2 7 2 14q0 16 -15 16q-38 0 -98 -135l-16 -36h-50l35 136q2 7 2 16q0 18 -16 18q-36 0 -90 -124l-20 -46h-52l36 132q4 15 4 25t-9 10q-8 0 -20 -19l-11 -17l-11 6l12 19q28 45 64 45q26 0 26 -27
q0 -21 -16 -76q-1 -3 -3 -7q-2 -8 -21 -64h1l11 26q63 148 131 148q34 0 34 -35q0 -29 -16 -79q-4 -11 -10 -31l-11 -29h1l9 21q30 69 66 111.5t67 42.5q37 0 37 -37q0 -6 -17 -74l-2 -8l-7 -24q-3 -18 -3 -23q0 -13 10 -13q7 0 22 21l10 14z" />
    <glyph glyph-name="afii10085" unicode="&#x443;" horiz-adv-x="232" 
d="M226 171q0 -43 -30 -107.5t-76 -121.5q-54 -66 -101 -66q-21 0 -34.5 12t-13.5 31q0 16 11 27t27 11q15 0 26 -11t11 -25q0 -11 -6 -20l-4 -6l8 2q41 10 110 114l4 6l18 31h-1l-7 -8q-38 -44 -86 -44q-35 0 -35 35q0 4 0.5 6.5t2.5 16.5t5 28l1 6q1 2 3 13q1 1 2 8l1 6
q6 36 6 38q0 15 -8 15q-6 0 -22 -24l-8 -12l-10 3l7 16q10 23 29.5 37.5t36.5 14.5q28 0 28 -30q0 -18 -7 -48l-4 -17l-7 -37q-4 -21 -4 -33q0 -17 15 -17q22 0 50.5 28.5t28.5 51.5q0 16 -9 34l-2 4l-3 5q-10 17 -10 34q0 30 28 30q29 0 29 -37z" />
    <glyph glyph-name="afii10086" unicode="&#x444;" horiz-adv-x="416" 
d="M158 23q-25 -31 -70 -31q-33 0 -53 22t-20 59q0 54 34 91t81 37q51 0 66 -44q0 -4 2 -10l5 25l34 180q14 76 34 136t43.5 102t50 64t55.5 22q34 0 34 -32q0 -13 -10.5 -23t-24.5 -10q-29 0 -29 28q0 4 2 10l3 9l-9 -8q-12 -11 -24 -32.5t-24.5 -58t-25 -90.5t-26.5 -129
l-6.5 -36.5t-2.5 -13.5l-11.5 -71t-11.5 -62l3 3l11 13q25 31 70 31q33 0 53 -22t20 -59q0 -54 -34 -91t-81 -37q-51 0 -66 44q-2 6 -2 10l-6 -18q-16 -50 -33 -81t-34 -48t-34 -23t-33 -6q-37 0 -37 33q0 31 34 31q29 0 29 -29q0 -11 -5 -16l-2 -2l3 1q6 5 13 8t19 21
q13 21 35 122v3q-2 -2 -3.5 -3t-2.5 -3t-2 -3zM68 78q0 -62 48 -62q49 0 70 76q4 12 4 29q0 62 -46 62q-29 0 -52 -32q-24 -33 -24 -73zM358 118q0 62 -48 62q-41 0 -62 -51q-6 -27 -12 -51v-3q0 -62 46 -62q29 0 52 32q24 33 24 73z" />
    <glyph glyph-name="afii10068" unicode="&#x433;" horiz-adv-x="210" 
d="M36 147q14 21 34.5 39.5t47.5 22.5q22 4 44.5 -4t25.5 -30q2 -18 -6 -30t-20.5 -21t-27 -16.5t-26.5 -16t-19 -19.5t-4 -27q1 -20 12.5 -26t27 -2.5t31.5 15t27 27.5l8 -14q-20 -24 -40 -35t-43 -15q-27 -4 -48.5 2.5t-23.5 27.5q-4 30 11 45.5t34.5 27t35.5 23.5t13 35
q-6 17 -18.5 21.5t-25.5 0t-25.5 -15.5t-18.5 -25z" />
    <glyph glyph-name="afii10072" unicode="&#x436;" horiz-adv-x="486" 
d="M30 156q22 32 46.5 41t49.5 9q19 -1 32 -9t21 -20t11 -27.5t2 -30.5h34l22 85l51 1l-22 -86h34q11 23 26.5 39.5t32 27.5t32.5 15.5t28 3.5h6q26 0 38 -12t12 -32q0 -14 -10 -24t-24 -10q-30 0 -30 31q0 21 16 27l10 5l-10 2q-4 1 -4 1.5t-2 0.5q-16 0 -31 -18t-26.5 -43
t-17 -50.5t-3.5 -41.5q1 -12 8.5 -20.5t24.5 -7.5q5 0 14 2.5t19 7t18.5 11.5t13.5 16l11 -6q-22 -32 -46.5 -41t-49.5 -9q-23 1 -37.5 12t-22 27t-8 35t5.5 37h-32l-26 -105h-52l27 105h-32q-2 -10 -4 -15q-10 -26 -26 -44t-33.5 -30t-34.5 -17t-29 -4h-6q-26 0 -38 12
t-12 32q0 14 10 24t24 10q30 0 30 -31q0 -21 -16 -27l-10 -5l10 -2q4 -1 4 -1.5t2 -0.5q16 0 31 18t26.5 42.5t17 50.5t3.5 42q-1 12 -8.5 20.5t-24.5 7.5q-5 0 -14.5 -2.5t-19 -7t-18.5 -11.5t-13 -16z" />
    <glyph glyph-name="afii10073" unicode="&#x437;" horiz-adv-x="221" 
d="M130 210q10 -1 22 -3.5t22 -8.5t16.5 -16t6.5 -26q-6 -49 -60 -53q26 -3 41.5 -14.5t15.5 -29.5q0 -34 -34.5 -51.5t-88.5 -13.5q-31 2 -46 12.5t-15 33.5q0 32 29 32q32 0 32 -32q0 -23 -19 -27l-7 -2l4 -2q5 -2 10 -2t10 -1q13 -2 25 -1t21 6.5t14.5 17t5.5 29.5
q0 20 -8 30t-42 10h-19l4 16q8 -1 15 -1h14q27 1 38 10t11 38q-3 18 -15.5 25.5t-27.5 6t-30.5 -11t-24.5 -27.5l-11 7q21 32 44 40.5t47 8.5z" />
    <glyph glyph-name="afii10087" unicode="&#x445;" 
d="M253 61l-13 -21q-27 -44 -50 -44q-16 0 -38 37l-23 38l-8 -17q-28 -59 -65 -59q-39 0 -39 36q0 15 10.5 26t24.5 11q13 0 22 -9.5t9 -21.5q0 -15 -12 -23l-6 -4h5q19 0 38 45l13 30l-36 59l-4 5q-8 10 -17 10q-8 0 -16 -13l-8 -13l-11 6l9 17q25 47 50 47q18 0 42 -40
l15 -25l3 8q22 59 65 59q35 0 35 -36q0 -34 -32 -34q-31 0 -31 30q0 6 2 10l5 9h-1l-4 -3q-22 -17 -33 -49l-2 -6l26 -44l3 -4l2 -3q22 -33 34 -33t19 16l5 11z" />
    <glyph glyph-name="afii10077" unicode="&#x43b;" horiz-adv-x="285" 
d="M138 174q-18 -8 -31 -16l-2 16q27 15 56 23t51 4.5t33 -20.5t3 -51q1 3 -0.5 -3t-4 -15t-5.5 -18t-3 -12l-7 -25q-4 -13 -4 -22q0 -12 10 -12q14 0 28 26l6 11l11 -9l-7 -11q-29 -44 -67 -44q-32 0 -32 34q0 12 3 20l12 45q3 8 3.5 9.5t2.5 9.5q5 17 6 32t-2 25
q-3 9 -11.5 13t-17.5 0q-2 -1 -8 -2t-8 -3q-2 -22 -9 -52.5t-20 -59t-32 -48.5t-45 -20q-39 0 -39 36q0 15 10.5 26t24.5 11q13 0 21 -8.5t8 -20.5q0 -8 -3 -11.5t-9 -7.5l-1 -4q16 0 29.5 16t24 39.5t17 50t8.5 48.5z" />
    <glyph glyph-name="afii10078" unicode="&#x43c;" horiz-adv-x="386" 
d="M92 179q26 17 53 22t47 -9q12 -8 17.5 -21.5t7 -29.5t0 -32.5t-3.5 -29.5q-2 -14 -5 -26t-5 -23l113 164l2 7h52l-40 -156q0 -12 10 -12t24 24l6 11l11 -7l-9 -13q-35 -50 -67 -50q-27 0 -27 29q0 8 3.5 28.5t13.5 54.5l12 47l-108 -157h-52q6 23 12.5 58.5t7.5 73.5
q2 15 -3 28.5t-15 19.5q-3 -23 -11 -54t-21 -59t-32 -47.5t-43 -19.5q-39 0 -39 36q0 15 10.5 26t24.5 11q13 0 21 -8.5t8 -20.5q0 -8 -3 -11.5t-9 -7.5l-1 -4q16 0 30 17.5t24.5 43t17.5 53.5t9 50q-7 0 -19 -5l-18 -12z" />
    <glyph glyph-name="afii10088" unicode="&#x446;" horiz-adv-x="289" 
d="M282 54l-4 -5q-11 -60 -39 -96t-65 -36q-14 0 -25.5 7.5t-22 12.5t-21 2t-22.5 -25l-11 5q16 27 36 43t37 14q18 -2 28.5 -11t27.5 -9q14 0 24 6.5t17 17t12 23t8 25.5q-27 -31 -51 -31q-34 0 -34 33q0 13 12 63l2 5l2 8l2 7l1 2v2l16 52l-1 1l-6 -18q-15 -44 -53.5 -100
t-82.5 -56q-34 0 -34 35q0 10 8 42l4 16l4 13l2 7l1 6q10 35 10 42q0 12 -9 12q-10 0 -23 -22l-8 -14l-11 8l9 12q37 49 65 49q29 0 29 -31v-3l-1 -3l-11 -48l-6 -22l-9 -31q0 -2 -1.5 -7.5t-1.5 -12.5q0 -16 16 -16q41 0 95 133l15 37h51l-33 -137q-4 -17 -4 -25
q0 -11 10 -11q7 0 17 12l12 14l3 5q0 2 1 4v-1l1 1z" />
    <glyph glyph-name="afii10102" unicode="&#x455;" horiz-adv-x="299" 
d="M101 127q15 5 20 5q21 0 37 -10l6 9l18 32v1q19 39 55 39q46 0 44 -38q0 -14 -10.5 -24.5t-24.5 -10.5q-30 0 -29 31q0 20 14 25l6 2v1l-5 1h-4q-19 0 -39 -38l-2 -4q-4 -9 -15 -25l-5 -7l7 -6q13 -11 30 -48l1 -4q14 -32 28 -32q21 0 33 31l5 14l12 -6l-4 -10
q-26 -59 -77 -59q-36 0 -49 49l-2 5l-5 21q0 4 -3 10l-3 6q-17 -14 -29 -14q-15 0 -22 4l-20 -77h-49l33 139q1 5 2 9t1 8q0 12 -7 12q-9 0 -22 -19l-12 -16l-11 6l13 17q32 46 64 46q29 0 29 -32q0 -3 -0.5 -8t-2.5 -13zM136 97q-11 20 -22 20q-7 0 -15 -2l-6 -25
q8 -5 21 -5q5 0 22 12z" />
    <glyph glyph-name="afii10076" unicode="&#x43a;" horiz-adv-x="299" 
d="M101 127q15 5 20 5q21 0 37 -10l6 9l18 32v1q19 39 55 39q46 0 44 -38q0 -14 -10.5 -24.5t-24.5 -10.5q-30 0 -29 31q0 20 14 25l6 2v1l-5 1h-4q-19 0 -39 -38l-2 -4q-4 -9 -15 -25l-5 -7l7 -6q13 -11 30 -48l1 -4q14 -32 28 -32q21 0 33 31l5 14l12 -6l-4 -10
q-26 -59 -77 -59q-36 0 -49 49l-2 5l-5 21q0 4 -3 10l-3 6q-17 -14 -29 -14q-15 0 -22 4l-20 -77h-49l33 139q1 5 2 9t1 8q0 12 -7 12q-9 0 -22 -19l-12 -16l-11 6l13 17q32 46 64 46q29 0 29 -32q0 -3 -0.5 -8t-2.5 -13zM136 97q-11 20 -22 20q-7 0 -15 -2l-6 -25
q8 -5 21 -5q5 0 22 12z" />
    <glyph glyph-name="afii10089" unicode="&#x447;" horiz-adv-x="223" 
d="M165 170l-37 -23.5t-38 -18t-30.5 -1.5t-13.5 26l-23 -36l-9 9l47 77h27q-11 -26 -2.5 -34t27 -5t42.5 14.5t43 25.5l13 -13q-26 -18 -50.5 -43t-38.5 -51q-5 -9 -6.5 -23t2.5 -25.5t14 -17.5t29 -1q15 5 24 13.5t19 21.5l6 -13q-13 -16 -26.5 -27.5t-32.5 -19.5
q-29 -10 -52.5 -8t-37.5 28q-5 16 -1 30.5t16.5 30.5t34.5 35.5t54 45.5v3z" />
    <glyph glyph-name="afii10090" unicode="&#x448;" horiz-adv-x="428" 
d="M229 64q0 -2 -1.5 -7.5t-1.5 -12.5q0 -16 16 -16q40 0 95 136l15 37h51l-33 -140q-4 -15 -4 -25q0 -11 10 -11q6 0 17 12l12 14l5 9l12 -6l-13 -17q-31 -40 -58 -40q-34 0 -34 33q0 13 12 63l2 5l2 8l2 7l1 2v2l16 55l-1 1l-6 -18q-8 -22 -21 -48.5t-33 -54.5
q-38 -56 -82 -56q-34 0 -34 35q0 8 8 42l4 16l4 13l19 70l-1 1l-6 -18q-8 -22 -21 -48.5t-33 -54.5q-38 -56 -82 -56q-34 0 -34 35q0 8 8 42l11 42q10 33 10 42q0 12 -9 12q-10 0 -23 -22l-8 -14l-11 8l9 12q37 49 65 49q29 0 29 -31v-3l-1 -3l-11 -48l-6 -22l-9 -31
q0 -2 -1.5 -7.5t-1.5 -12.5q0 -16 16 -16q40 0 95 136l15 37h51z" />
    <glyph glyph-name="afii10091" unicode="&#x449;" horiz-adv-x="428" 
d="M420 51q-10 -62 -38.5 -99.5t-66.5 -37.5q-14 0 -25.5 7.5t-22 12.5t-21 2t-22.5 -25l-11 5q16 27 36 43t37 14q18 -2 28.5 -11t27.5 -9q15 0 25.5 7t17.5 18.5t11.5 25t7.5 27.5q-28 -34 -53 -34q-34 0 -34 33q0 13 12 63l2 5l2 8l2 7l1 2v2l16 55l-1 1l-6 -18
q-8 -22 -21 -48.5t-33 -54.5q-38 -56 -82 -56q-34 0 -34 35q0 8 8 42l4 16l4 13l19 70l-1 1l-6 -18q-8 -22 -21 -48.5t-33 -54.5q-38 -56 -82 -56q-34 0 -34 35q0 8 8 42l11 42q10 33 10 42q0 12 -9 12q-10 0 -23 -22l-8 -14l-11 8l9 12q37 49 65 49q29 0 29 -31v-3l-1 -3
l-11 -48l-6 -22l-9 -31q0 -2 -1.5 -7.5t-1.5 -12.5q0 -16 16 -16q40 0 95 136l15 37h51l-32 -137q0 -2 -1.5 -7.5t-1.5 -12.5q0 -16 16 -16q40 0 95 136l15 37h51l-33 -140q-4 -15 -4 -25q0 -11 10 -11q6 0 17 12l12 14l5 9l12 -6z" />
    <glyph glyph-name="afii10094" unicode="&#x44c;" horiz-adv-x="249" 
d="M168 141q29 0 44.5 -14.5t14.5 -38.5q-1 -36 -38 -65q-18 -13 -36 -20t-41 -8h-1q-13 -2 -21.5 -1t-18.5 3q-14 3 -22 9t-12 14.5t-4.5 18t1.5 19.5l10 37l6 16.5t5 16.5l3 11q1 5 1.5 9t0.5 8q0 12 -7 12q-10 0 -23 -19l-12 -16l-12 6l13 17q34 46 66 46t32 -32
q0 -6 -5 -22l-11 -36q11 11 30 20t37 9zM84 35q-1 -14 3.5 -22t12.5 -8q5 -1 11 0q26 4 43.5 27.5t19.5 47.5q1 16 -5.5 25.5t-17 11.5t-25 -4t-30.5 -20h-1q-9 -33 -11 -58z" />
    <glyph glyph-name="afii10093" unicode="&#x44b;" horiz-adv-x="381" 
d="M168 141q29 0 44.5 -14.5t14.5 -38.5q-1 -36 -38 -65q-18 -13 -36 -20t-41 -8h-1q-13 -2 -21.5 -1t-18.5 3q-14 3 -22 9t-12 14.5t-4.5 18t1.5 19.5l10 37l6 16.5t5 16.5l3 11q1 5 1.5 9t0.5 8q0 12 -7 12q-10 0 -23 -19l-12 -16l-12 6l13 17q34 46 66 46t32 -32
q0 -6 -5 -22l-11 -36q11 11 30 20t37 9zM375 51l-7 -11q-29 -44 -67 -44q-32 0 -32 34q0 12 3 20l12 45q3 8 5.5 16.5t4.5 16.5l3 11q1 5 1.5 9t0.5 8q0 12 -7 12q-9 0 -22 -19l-11 -16l-11 6l12 17q32 46 63 46q30 0 30 -32q0 -12 -15 -63l-2 -5q0 -3 -1.5 -7.5t-3.5 -12.5
l-7 -25q-4 -13 -4 -22q0 -12 10 -12q14 0 28 26l6 11zM84 35q-1 -14 3.5 -22t12.5 -8q5 -1 11 0q26 4 43.5 27.5t19.5 47.5q1 16 -5.5 25.5t-17 11.5t-25 -4t-30.5 -20h-1q-9 -33 -11 -58z" />
    <glyph glyph-name="afii10092" unicode="&#x44a;" horiz-adv-x="286" 
d="M201 141q29 0 44.5 -14.5t14.5 -38.5q-1 -36 -38 -65q-12 -9 -30 -16.5t-37.5 -10.5t-38 -0.5t-30.5 12.5q-25 19 -17 62.5t61 96.5q-14 -12 -29 -20t-27.5 -9.5t-21.5 5.5t-10 24l-23 -39l-12 8l43 65l31 1q-11 -23 -4.5 -30t22 -3.5t35.5 14.5t37 23l9 -10
q-14 -11 -27 -33.5t-23 -49.5q12 11 32 19.5t39 8.5zM121 82q-2 -10 -3.5 -24t0 -26t8.5 -20t22 -5q26 4 41.5 26.5t17.5 46.5q1 16 -6 26.5t-18.5 13t-26.5 -3t-31 -19.5q-2 -5 -4 -15z" />
    <glyph glyph-name="afii10095" unicode="&#x44d;" horiz-adv-x="201" 
d="M30 156q22 32 46.5 41t49.5 9q23 -1 37 -11.5t20.5 -26.5t7 -35t-3.5 -38q-10 -48 -45.5 -74t-78.5 -26h-6q-26 0 -38 12t-12 32q0 14 10 24t24 10q30 0 30 -31q0 -21 -16 -27l-10 -5l10 -2q4 -1 4 -1.5t2 -0.5q11 0 21.5 9t20 23t17 31.5t12.5 34.5l-67 1l5 14l65 -1
q6 23 4 41q-1 12 -8.5 20.5t-24.5 7.5q-5 0 -14.5 -2.5t-19 -7t-18.5 -11.5t-13 -16z" />
    <glyph glyph-name="afii10096" unicode="&#x44e;" horiz-adv-x="376" 
d="M362 114q0 -49 -34.5 -84t-83.5 -35q-41 0 -66 25.5t-25 68.5v3v10h-39q-1 -3 -1.5 -5.5t-1.5 -5.5l-23 -91h-52l40 156q0 12 -10 12q-11 0 -24 -24l-6 -11l-11 7l9 13q35 50 67 50q27 0 27 -29q0 -15 -10 -58h37q7 31 33 55q35 34 81 34q42 0 67.5 -25t25.5 -66z
M310 136q0 56 -40 56q-25 0 -44.5 -36.5t-19.5 -85.5v-2q0 -59 39 -59q27 0 45 41q20 46 20 86z" />
    <glyph glyph-name="afii10097" unicode="&#x44f;" horiz-adv-x="269" 
d="M174 92q-18 -6 -40 -5q-13 -35 -35 -61.5t-52 -26.5q-39 0 -39 36q0 15 10.5 26t24.5 11q13 0 21 -8.5t8 -20.5q0 -8 -3 -11.5t-9 -7.5l-1 -4q18 0 34.5 20t27.5 48q-13 2 -25.5 6t-22.5 10.5t-15.5 15.5t-4.5 20q1 25 16.5 37.5t38 18t48 5t46.5 -0.5h52l-40 -156
q0 -12 10 -12t24 24l6 11l11 -7l-9 -13q-35 -50 -67 -50q-27 0 -27 29q0 8 2 23t10 43zM200 183q-16 3 -32 2t-29 -5.5t-21 -14t-8 -23.5q-1 -16 6 -25t17.5 -12.5t23 -2t22.5 5.5z" />
    <glyph glyph-name="afii10056" unicode="&#x407;" horiz-adv-x="555" 
d="M703 790q0 -20 -13.5 -35t-32.5 -15q-17 0 -28.5 12.5t-11.5 31.5q0 20 13.5 34.5t32.5 14.5q40 0 40 -43zM550 790q0 -21 -14 -35.5t-34 -14.5q-39 0 -39 41v3q0 20 14 34.5t33 14.5q40 0 40 -43zM720 654l-20 -18q-54 -49 -79 -94q-27 -50 -36 -123l-13 -108
q-14 -114 -70 -189q-42 -56 -119 -91.5t-160 -35.5q-80 0 -128 37.5t-48 99.5q0 110 145 166q18 7 35 10l16 3l1 24q6 151 99.5 256t221.5 105q72 0 123 -34l12 -8l12 9zM649 609l-17 9q-45 24 -104 24q-112 0 -190.5 -88t-78.5 -214v-27l18 1h14q66 0 97 -21l12 -8l-7 -12
q-53 26 -110 26q-14 0 -25 -1q4 -36 14 -70t25 -65l-12 -8q-35 66 -41 140l-23 -4q-70 -12 -114.5 -58.5t-44.5 -101.5t43 -88t114 -33q142 0 219 103q26 35 36.5 62.5t21.5 88.5q0 8 2 12l5 35q17 120 84 221q21 32 42 55z" />
    <glyph glyph-name="uni0406" unicode="&#x406;" horiz-adv-x="555" 
d="M720 654l-20 -18q-29 -26 -49 -49.5t-33.5 -49t-21 -54t-11.5 -64.5l-13 -108q-8 -65 -33 -122.5t-68.5 -100.5t-105 -68t-142.5 -25t-128.5 37t-47.5 100q0 111 145 166q9 4 18 6t17 4l16 3l1 24q3 75 30 141t70.5 115t100.5 77t120 28q73 0 123 -34l12 -8l12 9z
M649 609l-17 9q-45 24 -104 24q-56 0 -105 -23.5t-85.5 -64.5t-57.5 -96t-21 -118v-27l32 1q33 1 57 -4.5t40 -16.5l12 -8l-7 -12q-54 26 -110 26h-13.5t-11.5 -1q4 -36 14 -70t25 -65l-12 -8q-35 67 -41 140l-23 -4q-35 -6 -64 -21.5t-50 -37t-33 -48t-12 -53.5
q0 -55 42.5 -88t114.5 -33q130 0 196.5 77t87.5 224q10 76 42.5 148t83.5 128z" />
    <glyph glyph-name="afii10103" unicode="&#x456;" horiz-adv-x="155" 
d="M171 370q0 -14 -10.5 -24.5t-25.5 -10.5q-14 0 -24.5 10t-10.5 24v1q0 35 35 35q36 0 36 -35zM149 51l-7 -11q-29 -44 -67 -44q-32 0 -32 34q0 12 3 20l12 45q3 8 5.5 16.5t4.5 16.5l3 11q1 5 1.5 9t0.5 8q0 12 -7 12q-9 0 -22 -19l-11 -16l-11 6l12 17q32 46 63 46
q30 0 30 -32q0 -12 -15 -63l-2 -5q0 -3 -1.5 -7.5t-3.5 -12.5l-7 -25q-4 -13 -4 -22q0 -12 10 -12q14 0 28 26l6 11z" />
    <glyph glyph-name="afii10071" unicode="&#x451;" horiz-adv-x="213" 
d="M216 288q0 -18 -11 -31.5t-26 -13.5q-25 0 -25 31v2q0 17 10.5 29.5t25.5 12.5q26 0 26 -30zM134 286q0 -39 -34 -44h-3q-25 0 -25 32q0 16 11.5 29t25.5 13q25 0 25 -30zM190 153q0 -30 -25.5 -51t-65.5 -23l-5 -1h-31v-12q0 -49 39 -49q32 0 59 30l8 9l9 -8l-14 -14
q-37 -37 -85 -37q-71 0 -71 73q0 56 36 95.5t86 39.5q60 0 60 -52zM152 162q0 31 -26 31q-19 0 -37 -25.5t-23 -63.5l-2 -14h17q47 0 65 46q6 15 6 26z" />
    <glyph glyph-name="afii10023" unicode="&#x401;" horiz-adv-x="605" 
d="M583 790q0 -20 -13.5 -35t-32.5 -15q-17 0 -28.5 12.5t-11.5 31.5q0 20 14 34.5t33 14.5q17 0 28 -12t11 -31zM430 790q0 -21 -14 -35.5t-34 -14.5q-39 0 -39 41v3q0 20 14 34.5t33 14.5q40 0 40 -43zM604 187q0 -80 -82.5 -136t-199.5 -56t-191 58t-74 150
q0 76 55.5 135t144.5 81l4 1l9 2q3 3 3 6q0 4 -3 5l-7 6l-3 3q-40 40 -40 98q0 67 60.5 111.5t150.5 44.5q64 0 105 -28t41 -71q0 -25 -14 -41t-36 -16q-19 0 -31.5 13.5t-12.5 32.5t12 32t29 13h9q8 0 8 5q0 4 -8 14q-38 30 -94 30q-62 0 -106.5 -35.5t-44.5 -85.5
q0 -26 14.5 -53t37.5 -40l7 -4q11 -8 11 -15q0 -14 -16 -20l-23 -8l-11 -3q-181 -49 -181 -206q0 -85 61.5 -140.5t155.5 -55.5q89 0 154 51t65 121q0 50 -37.5 83.5t-95.5 33.5q-48 0 -95 -24t-60 -57l-6 -15l-16 7l5 11q19 43 72 69q50 26 106 26q73 0 120.5 -37.5
t47.5 -95.5z" />
    <glyph glyph-name="afii10053" unicode="&#x404;" horiz-adv-x="591" 
d="M456 694q64 0 105 -28t41 -71q0 -25 -14 -41t-36 -16q-19 0 -31.5 13.5t-12.5 32.5t12 32t29 13h9q8 0 8 5q0 3 -8 14q-38 30 -94 30q-50 0 -94.5 -24t-81.5 -63.5t-66 -89.5t-47 -101q32 21 55 27.5t39.5 3t28.5 -13.5t22 -21l19 -23t20 -14.5t26 4t38 32.5l15 -4
q-31 -34 -56 -48.5t-45 -15.5t-35.5 8t-27.5 21l-22.5 23.5t-22.5 17t-26.5 2t-35.5 -22.5q-21 -68 -21 -124q0 -104 50 -169q51 -65 131 -65q24 0 49.5 7.5t50.5 21.5t48.5 32.5t43.5 41.5l14 16l12 -9l-15 -19q-43 -54 -107 -85t-130 -31q-99 0 -160 69q-62 70 -62 179
q0 49 13 101.5t37.5 102.5t59 95.5t77.5 79.5t93 54t105 20z" />
    <glyph glyph-name="afii10050" unicode="&#x490;" horiz-adv-x="674" 
d="M947 758q-19 -51 -41 -83t-45.5 -48.5t-48 -20.5t-49.5 0l-14 1h-13l-8 -7q-12 -9 -22.5 -20.5t-19.5 -29t-15.5 -41.5t-9.5 -57l-7 -66l-4.5 -31t-6.5 -37l-8 -40l-18 -52q-18 -53 -54 -95.5t-84 -73t-106.5 -47t-121.5 -16.5q-45 0 -82.5 10t-65 28t-42.5 43.5
t-15 56.5q0 30 15.5 55.5t42.5 43.5t63 28.5t77 10.5q53 0 86 -16l15 -7l1 1l-10 5q-31 16 -50 58.5t-19 95.5q0 59 26.5 111.5t71.5 92t105 62.5t128 23q25 -1 57.5 -5t72.5 -15q38 -10 72 -12.5t61 6t45.5 30.5t25.5 61zM718 611l-88 17q-62 12 -102 12q-54 0 -99.5 -17.5
t-77.5 -49t-50 -74.5t-18 -95q0 -113 92 -160l18 -9l-11 -18l-18 10q-47 26 -111 26q-36 0 -67 -10t-54 -28t-36.5 -42t-13.5 -52q0 -52 47.5 -82t128.5 -30q51 0 97.5 14t84 41t65 66.5t42.5 89.5l17 58l17 79q18 83 44 135t63 89z" />
    <glyph glyph-name="afii10098" unicode="&#x491;" horiz-adv-x="171" 
d="M14 183l5 17h133l35 64l13 -1l-15 -79v-1h-94l-42 -183h-45l44 183h-34z" />
    <glyph glyph-name="afii61352" unicode="&#x2116;" horiz-adv-x="1010" 
d="M782 510q0 -40 -29 -136l-70 -230q-11 -38 -11 -69q0 -44 28 -44q25 0 52 44l8 13l16 -9l-7 -11q-47 -74 -104 -74q-28 0 -44.5 19t-16.5 50q0 26 20 92l73 235q20 66 20 100q0 47 -34 47q-61 0 -164 -196q-38 -72 -67.5 -135.5t-50.5 -118.5l-33 -86h-62l15 50
q14 43 27 100q69 277 69 373q0 67 -31.5 107t-83.5 40q-77 0 -135 -85t-58 -198q0 -166 104 -258l9 -8l-11 -14l-20 20q-98 98 -98 260q0 129 67 218q67 91 165 91q68 0 110 -49q43 -47 43 -124q0 -52 -15 -136q-7 -37 -17 -82t-24 -99l-7 -27l-5 -18l-20 -68l23 56
q2 5 6 14t9 23l9 21q156 364 279 364q66 0 66 -62zM979 336l-17 -31h-144l16 31h145zM1025 583q0 -76 -37 -136.5t-83 -60.5q-30 0 -50 27t-20 67q0 74 39 134.5t87 60.5q64 0 64 -92zM1007 590q0 72 -40 72q-29 0 -54 -50q-34 -67 -34 -142v-2q0 -68 35 -68q29 0 53 43
q40 71 40 147z" />
    <glyph glyph-name="afii10101" unicode="&#x454;" horiz-adv-x="201" 
d="M192 157q0 -15 -10.5 -25.5t-24.5 -10.5q-32 0 -32 33q0 21 17 29l10 5l-4 2q-10 2 -12 2q-26 0 -46.5 -26.5t-25.5 -64.5h85l-5 -14h-81v-7q0 -64 45 -64q21 0 44 24l14 15l11 -6l-14 -16q-33 -37 -77 -37q-35 0 -56 22t-21 60q0 26 9.5 49t26 40t38.5 27t46 10
q27 0 45 -13t18 -34z" />
    <glyph glyph-name="afii10062" unicode="&#x40e;" horiz-adv-x="727" 
d="M816 574l-13 -10q-29 -23 -44 -64q-11 -32 -20 -66t-15 -72l-2 -12l-22 -136q-27 -168 -119 -269t-218 -101q-89 0 -89 58q0 19 13.5 31t34.5 12q20 0 32.5 -12t12.5 -31q0 -16 -11 -30l-7 -9h22q141 0 211 157q4 8 7.5 18t8.5 23l3 15t4 18l6 27l-1 1l-11 -18
q-15 -24 -35.5 -44t-45.5 -34.5t-51.5 -22.5t-53.5 -8q-48 0 -96 21l-32 14l-19 -11q-41 -24 -101 -24q-46 0 -75 18t-29 46q0 31 33.5 52t82.5 21q48 0 116 -30l40 -18l16 17q64 68 102 164q40 96 40 188q0 45 -12.5 82.5t-35 64.5t-53.5 41.5t-69 14.5q-93 0 -157 -84
q-65 -85 -65 -203q0 -58 15 -95l10 -25l-16 -8l-7 20q-18 51 -18 109q0 135 81 230q82 96 198 96q87 0 143 -60q55 -58 55 -152q0 -92 -51 -197q-49 -104 -133 -185l-27 -26l26 -11q55 -23 90 -23q51 0 84.5 29t55.5 81q10 23 20 58.5t21 83.5l3 13q0 1 1 4t1 4l2 9l2 9
q21 91 59 155q46 76 87 96l5 3zM270 37l-31 15q-75 37 -118 37q-42 0 -42 -30q0 -21 24.5 -34t64.5 -13q36 0 78 16zM827 784q-2 -18 -10 -34.5t-22.5 -30t-35.5 -23.5t-50 -13q-44 -5 -75.5 11.5t-34.5 45.5q-3 23 8.5 37t34.5 17q24 1 37 -10t16.5 -26t-2.5 -30t-21 -21
l-13 -4l18 -5q48 -8 80 16.5t40 68.5z" />
    <glyph glyph-name="afii10110" unicode="&#x45e;" horiz-adv-x="230" 
d="M226 171q0 -43 -30 -107.5t-76 -121.5q-54 -66 -101 -66q-21 0 -34.5 12t-13.5 31q0 16 11 27t27 11q15 0 26 -11t11 -25q0 -11 -6 -20l-4 -6l8 2q41 10 110 114l4 6l18 31h-1l-7 -8q-38 -44 -86 -44q-35 0 -35 35q0 4 0.5 6.5t2.5 16.5t5 28l1 6q1 2 3 13q1 1 2 8l1 6
q6 36 6 38q0 15 -8 15q-6 0 -22 -24l-8 -12l-10 3l7 16q10 23 29.5 37.5t36.5 14.5q28 0 28 -30q0 -18 -7 -48l-4 -17l-7 -37q-4 -21 -4 -33q0 -17 15 -17q22 0 50.5 28.5t28.5 51.5q0 16 -9 34l-2 4l-3 5q-10 17 -10 34q0 30 28 30q29 0 29 -37zM258 332q-4 -27 -24 -49.5
t-62 -27.5q-32 -4 -55 8.5t-25 34.5q-2 17 6 28t25 13t26 -7t11 -26q3 -27 -16 -33l-10 -4l14 -4q34 -5 58.5 14t29.5 52z" />
    <glyph glyph-name="guilsinglleft" unicode="&#x2039;" horiz-adv-x="788" 
d="M152 -6q-26 0 -48 4.5t-36 13.5q-23 11 -29 33q0 25 17 41t40 25t49 12.5t44 3.5q35 0 73.5 -9.5t76.5 -23.5q16 21 30 49t26.5 60.5t23.5 68l22 70.5q16 51 36.5 101t47.5 94.5t62.5 80t83.5 58.5q40 18 86 27l2 -14q-24 -4 -45 -11t-38 -17q-26 -14 -45 -33t-34 -42
q-20 -30 -33 -64t-23.5 -69.5t-19.5 -70.5t-19 -66q-23 -69 -55 -126.5t-77 -100.5l54 -21.5l54 -20.5q23 -9 44.5 -14t43.5 -4q17 2 35 13.5t26 28.5l5 11l16 -8l-11 -18q-17 -26 -40 -40.5t-58 -18.5q-42 -5 -75 -2.5t-63 10.5q-25 6 -48 13.5t-46 16.5q-32 -23 -71.5 -32
t-83.5 -9zM144 641q-18 -10 -30.5 -24.5t-18 -29.5t-4 -30t11.5 -26q10 -12 26.5 -19t36 -8t41.5 6t43 24l7 -13q-28 -21 -54 -28.5t-49 -5.5t-41 12.5t-27 26.5q-8 14 -9 32.5t5 37.5t20 37t36 30q38 23 83.5 32t86.5 6q24 -2 47.5 -7t46.5 -13q30 -9 55 -19.5t48.5 -15.5
t47.5 0t52 28l-2 -19q-27 -22 -61 -33t-69.5 -14t-69.5 1t-60 12l-51.5 17.5t-50.5 13.5t-49 3t-48 -14zM167 79q-23 4 -43 6t-35.5 -1t-25 -11t-10.5 -22q-1 -19 34 -34q14 -5 31.5 -7.5t37.5 -2.5q36 -1 67.5 9t60.5 27q-26 10 -57 19.5t-60 16.5zM388 244l23 36t15 32
q18 31 26 63t6.5 59.5t-12 47.5t-28 28t-42 1.5t-53.5 -33.5q-26 -23 -43 -58.5t-30 -77.5q-7 -20 -13.5 -46t-8.5 -51t2.5 -44.5t20.5 -25.5q16 -8 40.5 -1.5t41.5 20.5q16 10 28.5 22.5zM456 321l-48 -73q-15 -22 -35 -41t-41 -31q-24 -13 -52.5 -18.5t-48.5 0.5
q-28 6 -43 28t-20 49.5t-2.5 57.5t10.5 53q14 44 40 84t64 66q18 13 39 22t41 12.5t37 3t28 -5.5q25 -11 37.5 -37t14.5 -64zM568 448q-14 -20 -23.5 -36.5t-15.5 -32.5q-19 -31 -26.5 -63t-6 -59.5t12 -47.5t28.5 -28t42 -1t53 34q26 23 43.5 58.5t30.5 77.5
q7 19 13.5 45.5t8.5 51.5t-2.5 44.5t-20.5 25.5q-16 7 -39.5 0.5t-42.5 -19.5q-16 -11 -28.5 -23.5zM499 371l49 73q15 22 34.5 40.5t41.5 31.5q23 13 51.5 18t48.5 0q28 -6 43.5 -28t20.5 -50t2.5 -58t-10.5 -53q-14 -44 -40.5 -84t-64.5 -66q-18 -13 -39 -21.5t-41 -12
t-37 -3.5t-28 5q-24 11 -36.5 37.5t-14.5 64.5z" />
    <glyph glyph-name="afii10038" unicode="&#x424;" horiz-adv-x="788" 
d="M152 -6q-47 0 -76.5 13.5t-36.5 37.5q0 25 17 41t40 25t49 12.5t44 3.5q35 0 73.5 -9.5t76.5 -23.5q23 29 41 72t34 92l-6 -10q-28 -43 -69.5 -68t-85.5 -25q-25 0 -42 10t-27.5 26.5t-15 38t-4.5 43.5q0 47 18 93.5t49.5 84t72.5 60.5t88 23q39 0 59 -25.5t25 -67.5
q19 47 44.5 90t59 77.5t77 59t100.5 35.5l2 -14q-60 -9 -98 -37t-64 -66q-24 -37 -39.5 -80t-26.5 -87l17 25q27 40 67 66t87 26q25 0 42 -10t27.5 -26.5t15 -38t4.5 -43.5q0 -47 -18 -93t-49 -83.5t-72.5 -60.5t-89.5 -23q-40 0 -60 26.5t-23 71.5q-21 -50 -47.5 -92
t-61.5 -75l50 -20.5t50 -19.5t49 -14.5t47 -5.5q17 2 35 13.5t26 28.5l5 11l16 -8l-11 -18q-22 -35 -57 -48.5t-91 -13.5q-53 0 -96.5 12t-85.5 29q-32 -23 -71.5 -32t-83.5 -9zM568 448l-28 -46t-22.5 -43.5t-15.5 -44t-6 -47.5q0 -38 16.5 -64.5t45.5 -26.5q21 0 42 12.5
t41 35.5t36.5 55t28.5 71q8 23 15.5 54t7.5 59q0 26 -9.5 41.5t-32.5 15.5q-35 -1 -65 -23.5t-54 -48.5zM388 244q25 38 40 69t26 70q2 11 3.5 20.5t1.5 20.5q0 39 -16.5 65t-45.5 26q-21 0 -42 -12.5t-40.5 -35.5t-36 -54.5t-28.5 -70.5q-8 -23 -15.5 -54t-7.5 -59
q0 -27 9.5 -42.5t33.5 -15.5q35 0 64 22.5t54 50.5zM144 641q-26 -14 -39.5 -35.5t-13.5 -41.5q0 -26 23 -43t55 -17q19 0 40 7t41 23l7 -13q-25 -19 -48.5 -27t-43.5 -8q-41 0 -64.5 22t-23.5 56q0 33 19.5 59t49.5 43.5t67 26.5t73 9t70 -9t64.5 -20.5t58 -20.5t51.5 -9
q17 0 35.5 7t39.5 24l-2 -19q-32 -27 -74.5 -38t-85.5 -11q-39 0 -70.5 7.5t-59.5 17t-54 17t-54 7.5q-33 0 -61 -14zM167 79q-30 6 -57 6q-25 0 -41 -8t-16 -28q0 -17 29.5 -29.5t78.5 -12.5q35 0 64.5 9.5t58.5 26.5q-26 10 -57 19.5t-60 16.5z" />
    <glyph glyph-name="afii10193" unicode="&#x45f;" horiz-adv-x="788" 
d="M597 586q-24 -37 -39.5 -79.5t-27.5 -85.5l15 22q14 22 33.5 40.5t39.5 30.5q23 13 50 18t46 -1q26 -7 40 -28.5t18.5 -49.5t1.5 -58t-11 -53q-14 -44 -39.5 -83.5t-62.5 -65.5q-17 -13 -37 -21t-38.5 -12t-35 -3t-26.5 6q-21 10 -32 31.5t-14 53.5q-21 -52 -48.5 -98.5
t-64 -81.5t-83.5 -55.5t-105 -19.5q-48 1 -77 22t-29 56q0 56 51 56q22 0 36.5 -15t14.5 -38q0 -19 -12.5 -34t-30.5 -17l-9 -1v-1l13 -5q8 -3 18 -3.5t21 -2.5q53 -6 91.5 14t67 56t48.5 83t36 96l-7 -10q-14 -22 -33.5 -40.5t-39.5 -30.5q-23 -13 -50 -18t-46 1
q-26 7 -40 28.5t-18.5 49.5t-1.5 58t11 53q14 44 39.5 83.5t62.5 65.5q17 13 37 21t38.5 12t35 3t26.5 -6q20 -11 32 -33t15 -54q19 47 44.5 90t59 77.5t77 59t99.5 34.5l2 -14q-59 -10 -97.5 -37.5t-64.5 -65.5zM390 245q13 20 22.5 36t15.5 32q2 5 5 9.5t5 9.5q2 6 3 10
q4 11 7.5 23t7.5 24q7 37 1.5 67.5t-22 46t-42.5 12t-60 -34.5q-25 -23 -42 -58t-30 -77q-7 -20 -14 -46t-9 -51t2 -44.5t19 -25.5q15 -8 38 -2t40 20q16 10 28 22.5zM564 447q-13 -20 -22.5 -36t-15.5 -32l-7.5 -13.5t-6.5 -13.5q-2 -9 -5 -18.5t-5 -17.5q-2 -5 -3 -8.5
t-2 -7.5q-6 -36 0 -66.5t22.5 -45.5t42.5 -11.5t59 35.5q25 23 42 58t30 77q7 19 14 45.5t9 51.5t-2 44.5t-19 25.5q-15 8 -37.5 1.5t-40.5 -19.5q-15 -11 -27.5 -23t-25.5 -26zM144 641q-18 -10 -30.5 -24.5t-18 -29.5t-4 -30t11.5 -26q10 -12 26.5 -19t36 -8t41.5 6t43 24
l7 -13q-28 -21 -54 -28.5t-49 -5.5t-41 12.5t-27 26.5q-8 14 -9 32.5t5 37.5t20 37t36 30q38 23 83.5 32t86.5 6q24 -2 47.5 -7t46.5 -13q30 -9 55 -19.5t48.5 -15.5t47.5 0t52 28l-2 -19q-27 -22 -61 -33t-69.5 -14t-69.5 1t-60 12l-51.5 17.5t-50.5 13.5t-49 3t-48 -14z
" />
    <glyph glyph-name="afii10146" unicode="&#x462;" horiz-adv-x="1136" 
d="M683 537q-61 0 -164 -196q-38 -72 -67.5 -135.5t-50.5 -118.5l-33 -86h-62l15 50q14 43 27 100q69 277 69 373q0 67 -31.5 107t-83.5 40q-77 0 -135 -85t-58 -198q0 -166 104 -258l9 -8l-11 -14l-20 20q-98 98 -98 260q0 129 67 218q67 91 165 91q68 0 110 -49
q43 -47 43 -124q0 -52 -15 -136q-7 -37 -17 -82t-24 -99l-7 -27l-5 -18l-20 -68l23 56q2 5 6 14t9 23l9 21q156 364 279 364q66 0 66 -62q3 -21 -4 -50.5t-18.5 -64.5l-24.5 -73.5t-22 -77.5q-9 -37 -12.5 -77t4.5 -74.5t31 -57.5t65 -26q52 2 98 23.5t79.5 56t53 78.5
t19.5 91q0 27 -5 54.5t-18 49.5t-33.5 35t-50.5 11t-57 -17t-48 -39.5t-34 -55.5t-14 -64q0 -37 17 -62t44 -24l-2 -12q-16 -1 -29.5 6t-23.5 20.5t-15.5 32t-5.5 39.5q1 40 18.5 77t45.5 65.5t64 46.5t75 20q49 3 83 -23q25 -17 38 -46.5t12 -70.5q-2 -60 -28 -115.5
t-70.5 -99t-105 -70t-130.5 -27.5q-50 0 -81.5 21t-46.5 55t-15 77.5t11 88.5q10 38 24 77t26 76q6 18 13 44t8.5 50.5t-5.5 41.5t-29 17z" />
    <glyph glyph-name="afii10194" unicode="&#x463;" horiz-adv-x="249" 
d="M10 182l5 18h54l78 324q1 5 1.5 9t0.5 8q0 12 -7 12q-10 0 -23 -19l-12 -16l-12 6l13 17q34 46 66 46t32 -32q0 -2 -8.5 -40l-21.5 -92l-27 -114.5l-26 -108.5h63l-3 -18h-65q-7 -28 -11 -46.5t-6 -23.5q11 11 30 20t37 9q29 0 44.5 -14.5t14.5 -38.5q-1 -36 -38 -65
q-18 -13 -36 -20t-41 -8h-1q-13 -2 -21.5 -1t-18.5 3q-14 3 -21.5 10t-11 17t-3.5 20.5t2 20.5l28 117h-55zM84 35q-1 -14 3.5 -22t12.5 -8q5 -1 11 0q26 4 43.5 27.5t19.5 47.5q1 16 -5.5 25.5t-17 11.5t-25 -4t-30.5 -20h-1q-9 -33 -11 -58z" />
    <glyph glyph-name="afii10147" unicode="&#x472;" horiz-adv-x="637" 
d="M476 657q-32 -2 -60.5 -18t-51 -42t-36 -59.5t-14.5 -69.5q0 -29 9 -50l-15 -7q-10 23 -10 57q1 43 19.5 83t48 71.5t67.5 51t79 21.5q85 0 134 -61.5t49 -170.5q0 -187 -120 -329t-278 -142q-104 0 -168 67t-64 174q0 92 47 178q49 88 121 131l20 12l6 -15l-10 -7
q-48 -34 -79 -106q-33 -77 -33 -157q0 -112 53 -183q54 -70 140 -70q121 0 213 116q91 116 91 273q0 45 -8 89t-26 79.5t-48.5 58.5t-75.5 25zM152 312q29 19 62.5 30.5t68.5 15t69.5 -0.5t64.5 -16q28 -9 52 -21t47.5 -17t46.5 0.5t49 29.5l-2 -20q-25 -24 -56.5 -34.5
t-64.5 -12t-65 4t-56 14.5t-51.5 17t-55.5 11.5t-54.5 0.5t-48.5 -16l-6 12v2z" />
    <glyph glyph-name="afii10195" unicode="&#x473;" horiz-adv-x="240" 
d="M230 113q0 -49 -34.5 -84t-83.5 -35q-41 0 -66 25.5t-25 68.5v3q0 46 35 79.5t81 33.5q42 0 67.5 -25t25.5 -66zM74 69v-2q0 -59 39 -59q27 0 45 41q11 25 16 49l-98 1q-2 -15 -2 -30zM178 135q0 56 -40 56q-25 0 -45 -37q-10 -19 -15 -41l98 -1q2 12 2 23z" />
    <glyph glyph-name="space" unicode=" " horiz-adv-x="175" 
 />
  </font>
</defs>
</svg>
